<svg xmlns="http://www.w3.org/2000/svg" width="38.4387mm" height="37.6767mm" viewBox="0 0 454 445">
  <path id="Selection" fill="#c33" stroke="#c33" stroke-width="1" d="M 185.00,17.00
           C 177.45,14.85 176.13,12.38 167.00,11.70
             163.75,11.14 162.14,11.64 159.00,11.70
             144.78,13.22 131.83,17.90 121.17,27.76
             118.12,30.58 114.30,35.31 112.42,39.00
             111.30,41.21 110.66,44.57 108.57,45.98
             105.47,48.07 100.16,45.68 90.00,48.67
             78.76,51.96 69.41,59.96 62.29,69.00
             58.21,74.17 54.27,81.42 53.30,88.00
             52.36,94.35 54.35,98.04 52.31,100.42
             51.02,101.92 46.14,102.96 44.00,103.88
             39.94,105.62 36.27,108.22 33.00,111.17
             22.05,121.05 14.92,137.31 14.09,152.00
             13.56,161.46 17.21,165.23 21.00,173.00
             16.56,175.28 12.55,178.08 9.39,182.01
             -1.28,195.29 -2.57,220.56 3.63,236.00
             5.20,239.91 6.97,242.80 10.09,245.68
             11.98,247.41 15.58,249.31 15.71,252.09
             15.80,254.06 12.76,258.99 11.76,261.00
             9.49,265.59 8.65,268.91 8.17,274.00
             6.57,290.76 15.90,313.95 30.04,323.45
             34.91,326.72 40.27,328.19 46.00,329.00
             45.51,335.04 44.32,340.88 45.32,347.00
             48.40,365.83 64.31,383.45 82.00,390.05
             86.15,391.60 91.59,392.29 96.00,391.76
             98.71,391.54 103.21,389.78 105.41,391.76
             106.94,393.02 107.44,396.98 108.04,399.00
             109.24,403.00 110.85,406.56 113.22,410.00
             122.91,424.09 143.15,432.92 160.00,433.00
             167.11,433.03 171.39,432.79 178.00,429.60
             180.51,428.39 185.12,424.48 187.68,425.32
             189.37,425.88 192.45,430.27 194.09,431.79
             196.55,434.08 201.92,437.38 205.00,438.87
             210.64,441.61 223.63,445.25 229.83,444.84
             234.73,444.52 236.75,443.08 241.00,442.32
             241.00,442.32 251.72,440.61 251.72,440.61
             260.38,437.94 269.25,429.62 272.00,421.00
             276.90,424.00 281.34,427.22 287.00,428.70
             306.49,433.80 331.01,424.34 343.53,409.00
             346.80,405.00 348.76,400.98 350.08,396.00
             350.67,393.76 350.91,389.19 352.60,387.77
             354.37,386.27 359.50,387.10 362.00,386.91
             362.00,386.91 380.00,383.01 380.00,383.01
             393.42,377.41 410.08,353.52 410.89,339.00
             411.16,334.28 409.45,328.48 408.00,324.00
             414.44,322.27 419.37,321.21 425.00,317.21
             440.47,306.24 448.39,283.51 446.91,265.00
             446.61,261.25 444.84,255.33 443.09,252.00
             442.14,250.18 439.28,246.47 439.69,244.51
             440.03,242.90 442.73,241.00 443.90,239.82
             446.58,237.11 448.16,234.47 449.66,231.00
             455.28,217.98 453.56,196.07 448.53,183.00
             446.55,177.84 444.16,173.99 439.98,170.30
             438.20,168.72 433.16,165.42 432.58,163.33
             432.09,161.61 433.90,158.67 434.53,157.00
             435.66,154.03 436.10,151.16 436.25,148.00
             436.89,134.87 429.44,117.55 421.96,107.00
             418.22,101.72 413.11,96.61 407.00,94.23
             403.53,92.88 395.66,92.15 394.02,89.69
             392.30,87.10 393.69,82.97 392.07,77.00
             389.66,68.08 382.46,58.14 375.00,52.79
             367.50,47.40 358.18,42.77 349.00,41.51
             343.06,40.58 339.09,42.82 336.57,41.51
             332.98,39.82 334.14,33.16 327.67,26.29
             318.92,16.98 299.83,9.15 287.00,9.00
             281.57,8.94 277.25,8.65 272.00,10.36
             269.28,11.24 263.18,14.66 261.04,14.28
             258.76,13.88 256.55,10.99 254.83,9.46
             251.76,6.75 248.75,5.03 245.00,3.43
             239.35,1.01 233.13,0.08 227.00,0.00
             211.89,-0.17 191.54,0.30 185.00,17.00 Z
           M 236.00,119.00
           C 230.53,116.32 227.10,109.50 225.00,104.00
             225.00,104.00 223.00,104.00 223.00,104.00
             220.76,110.30 217.85,116.95 211.00,119.00
             211.00,119.00 196.58,51.00 196.58,51.00
             194.86,43.21 190.55,28.39 193.26,21.00
             196.25,12.85 203.32,10.82 211.00,9.42
             224.13,7.04 245.24,6.60 250.74,22.00
             253.69,30.26 249.74,46.17 248.00,55.00
             248.00,55.00 236.00,119.00 236.00,119.00 Z
           M 259.00,147.00
           C 255.52,141.02 245.99,131.77 245.24,127.00
             244.65,123.25 248.46,103.96 249.39,99.00
             249.39,99.00 258.66,46.00 258.66,46.00
             260.51,37.27 260.92,26.55 269.04,21.13
             281.34,12.93 301.83,19.80 313.00,27.36
             318.94,31.38 324.36,37.27 323.78,45.00
             323.30,51.29 317.57,58.66 314.30,64.00
             314.30,64.00 304.61,79.00 304.61,79.00
             304.61,79.00 288.00,106.00 288.00,106.00
             288.00,106.00 270.62,133.00 270.62,133.00
             267.45,138.04 264.41,144.19 259.00,147.00 Z
           M 186.00,145.00
           C 178.21,138.91 162.57,114.41 155.72,105.00
             155.72,105.00 130.28,69.00 130.28,69.00
             126.68,63.85 120.83,56.34 120.20,50.00
             119.41,42.14 124.21,37.03 130.01,32.63
             140.42,24.74 161.42,16.23 174.00,23.28
             182.85,28.23 183.79,37.16 185.88,46.00
             185.88,46.00 197.88,99.00 197.88,99.00
             198.82,103.09 203.12,122.12 202.60,125.00
             201.91,128.82 189.56,140.28 186.00,145.00 Z
           M 288.00,131.00
           C 288.00,131.00 285.00,131.00 285.00,131.00
             282.63,136.10 279.77,139.08 275.00,142.00
             277.50,135.24 282.92,128.27 286.81,122.00
             286.81,122.00 315.67,78.00 315.67,78.00
             320.71,70.42 328.16,57.38 336.00,52.97
             351.80,44.07 375.54,62.88 380.66,76.00
             381.95,79.31 382.35,84.52 381.66,88.00
             380.13,95.69 371.07,102.35 365.00,106.70
             365.00,106.70 319.00,138.67 319.00,138.67
             319.00,138.67 304.00,148.93 304.00,148.93
             302.20,150.02 299.41,151.74 297.21,151.19
             292.51,150.01 289.00,135.41 288.00,131.00 Z
           M 180.00,157.00
           C 169.49,153.44 163.74,142.26 155.00,136.00
             155.00,136.00 148.00,155.00 148.00,155.00
             141.27,152.77 119.78,137.93 112.00,133.20
             112.00,133.20 79.00,112.42 79.00,112.42
             70.07,106.82 62.44,101.57 63.04,90.00
             63.78,75.80 84.77,56.77 99.00,56.04
             112.24,55.37 116.71,65.39 123.58,75.00
             123.58,75.00 163.37,130.00 163.37,130.00
             168.46,136.81 179.06,148.86 180.00,157.00 Z
           M 392.00,102.33
           C 410.89,100.40 419.79,119.55 423.84,135.00
             425.85,142.63 425.97,152.70 419.67,158.45
             413.61,163.98 398.29,165.77 390.00,167.65
             390.00,167.65 345.00,177.42 345.00,177.42
             345.00,177.42 317.02,183.33 317.02,183.33
             310.78,183.91 308.99,174.54 306.49,170.00
             305.48,168.16 303.18,164.99 303.01,163.00
             302.84,160.96 303.82,159.62 305.16,158.21
             305.16,158.21 333.00,139.14 333.00,139.14
             333.00,139.14 368.00,115.33 368.00,115.33
             375.93,110.05 382.51,104.60 392.00,102.33 Z
           M 52.00,111.30
           C 61.86,110.54 70.08,117.08 78.00,122.14
             78.00,122.14 123.00,150.48 123.00,150.48
             127.39,153.39 137.58,158.80 140.68,162.32
             145.28,167.54 138.96,176.10 136.23,181.00
             134.94,183.32 133.68,186.04 130.82,186.62
             129.11,186.96 123.00,185.76 121.00,185.39
             121.00,185.39 103.00,182.12 103.00,182.12
             103.00,182.12 83.00,178.92 83.00,178.92
             83.00,178.92 46.00,172.00 46.00,172.00
             34.40,169.63 25.33,166.56 24.19,153.00
             23.11,140.23 33.14,120.60 44.00,114.00
             46.65,112.39 49.02,111.88 52.00,111.30 Z
           M 249.00,193.00
           C 250.79,186.66 254.07,180.72 254.55,174.00
             255.27,163.71 252.33,153.75 246.98,145.01
             243.72,139.68 238.45,133.74 232.00,133.00
             232.00,133.00 227.00,129.00 227.00,129.00
             234.16,143.86 237.03,145.34 237.00,163.00
             236.99,169.37 235.85,179.37 230.00,183.00
             230.00,183.00 234.22,171.00 234.22,171.00
             234.75,166.95 233.00,165.56 232.79,162.00
             232.79,162.00 232.79,154.00 232.79,154.00
             232.48,147.01 229.31,140.39 225.00,135.00
             226.31,139.53 228.22,146.35 227.70,151.00
             227.52,152.59 226.97,155.96 225.46,156.83
             223.02,158.25 221.48,154.70 220.97,152.98
             219.09,147.07 220.52,141.87 220.97,136.00
             214.62,145.37 216.82,149.23 215.90,159.00
             215.90,159.00 213.50,169.00 213.50,169.00
             213.16,173.61 215.50,177.81 217.00,182.00
             212.49,179.10 210.96,173.10 210.29,168.00
             209.24,160.06 210.87,148.53 213.55,141.00
             213.55,141.00 218.00,130.00 218.00,130.00
             208.02,138.32 201.21,156.07 203.32,169.00
             204.65,177.13 208.04,181.14 210.00,188.00
             210.00,188.00 206.00,189.00 206.00,189.00
             203.84,185.21 200.30,179.02 199.05,175.00
             198.10,171.93 198.04,170.15 198.00,167.00
             197.78,148.01 203.65,147.02 210.00,132.00
             197.80,140.93 189.41,159.91 192.67,175.00
             194.80,184.89 196.93,185.07 201.00,193.00
             192.68,192.92 185.80,177.42 185.19,170.00
             183.75,152.70 199.53,136.17 212.00,126.42
             212.00,126.42 223.15,117.34 223.15,117.34
             225.42,116.70 226.99,118.55 228.34,120.06
             231.72,123.86 234.11,127.29 238.00,130.83
             251.97,143.55 265.32,161.35 257.40,181.00
             255.34,186.09 254.06,190.33 249.00,193.00 Z
           M 235.00,135.00
           C 245.78,144.15 249.36,159.51 247.42,173.00
             246.52,179.23 245.83,185.76 239.00,188.00
             239.00,188.00 243.68,174.00 243.68,174.00
             243.68,174.00 241.96,153.00 241.96,153.00
             241.96,153.00 235.00,135.00 235.00,135.00 Z
           M 286.00,144.00
           C 290.19,160.90 305.45,177.15 309.38,199.00
             310.13,203.12 311.17,216.67 306.74,218.83
             301.60,221.34 302.97,211.16 303.00,209.00
             303.18,191.00 297.07,182.51 289.37,167.00
             286.50,161.23 286.13,156.12 280.00,153.00
             280.00,153.00 270.76,170.00 270.76,170.00
             266.06,181.59 266.00,189.89 266.00,202.00
             264.50,201.68 263.44,201.59 262.02,200.83
             253.07,196.03 262.29,192.49 265.24,181.00
             266.85,174.73 265.62,165.80 266.31,163.00
             267.73,157.25 280.42,145.64 286.00,144.00 Z
           M 161.00,147.00
           C 163.85,150.98 167.24,154.52 171.00,157.68
             173.27,159.58 176.56,161.50 177.98,164.09
             177.98,164.09 181.36,179.00 181.36,179.00
             184.06,187.00 187.80,190.64 193.00,197.00
             189.67,201.23 187.01,203.08 182.00,205.00
             181.85,198.28 181.12,197.89 180.28,192.00
             178.13,176.81 175.28,163.52 162.00,154.00
             159.72,161.87 157.34,169.59 153.74,177.00
             149.87,184.97 144.74,193.10 143.32,202.00
             142.10,209.68 146.03,215.91 145.96,218.91
             145.87,223.04 141.35,225.04 138.00,226.00
             136.08,221.45 135.16,220.08 135.02,215.00
             134.63,201.29 141.97,187.28 147.52,175.00
             147.52,175.00 159.00,147.00 159.00,147.00
             159.00,147.00 161.00,147.00 161.00,147.00 Z
           M 282.00,163.00
           C 288.58,175.98 295.83,190.14 296.00,205.00
             296.02,207.11 296.43,212.58 294.46,213.83
             291.53,215.69 291.13,210.55 291.17,209.00
             291.44,199.77 290.03,184.61 283.00,178.00
             284.61,190.21 287.69,201.94 284.00,214.00
             275.90,202.80 279.97,187.67 281.00,175.00
             269.96,183.93 274.78,201.22 277.00,213.00
             272.10,210.07 272.07,205.27 272.00,200.00
             271.84,185.65 272.75,175.79 280.00,163.00
             280.00,163.00 282.00,163.00 282.00,163.00 Z
           M 220.00,178.00
           C 219.15,176.08 218.58,175.21 218.51,173.00
             218.48,171.91 218.78,170.08 219.15,169.06
             223.18,157.94 233.36,173.43 224.87,177.32
             223.85,177.78 221.22,177.89 220.00,178.00 Z
           M 165.00,167.00
           C 172.33,173.48 174.77,190.46 174.99,200.00
             175.10,204.91 175.40,211.94 171.00,215.00
             171.09,204.56 174.42,187.00 165.84,179.00
             166.90,190.16 167.53,197.67 165.84,209.00
             165.84,209.00 164.00,217.00 164.00,217.00
             160.64,214.66 160.91,211.89 160.75,208.00
             160.41,199.97 163.04,186.96 165.00,179.00
             153.95,187.52 153.00,205.66 157.00,218.00
             151.18,216.09 150.26,210.59 150.04,205.00
             149.58,193.69 154.41,189.26 159.22,180.00
             159.22,180.00 165.00,167.00 165.00,167.00 Z
           M 317.00,194.00
           C 323.94,190.47 329.64,190.16 337.00,188.50
             337.00,188.50 366.00,182.20 366.00,182.20
             366.00,182.20 404.00,174.55 404.00,174.55
             416.02,172.15 426.53,169.09 435.73,180.04
             438.77,183.67 440.21,189.45 441.37,194.00
             443.28,201.47 443.01,202.47 443.00,210.00
             442.98,223.24 440.37,234.54 425.00,235.81
             419.96,236.23 406.46,233.91 401.00,233.13
             401.00,233.13 352.00,225.20 352.00,225.20
             352.00,225.20 329.00,221.13 329.00,221.13
             326.52,220.76 321.63,220.53 320.02,218.42
             318.76,216.77 319.00,213.04 319.00,211.00
             319.00,211.00 319.00,206.00 319.00,206.00
             318.93,200.70 318.45,199.03 317.00,194.00 Z
           M 128.00,196.00
           C 128.00,196.00 126.01,211.00 126.01,211.00
             126.01,211.00 127.00,224.00 127.00,224.00
             127.00,224.00 95.00,230.58 95.00,230.58
             95.00,230.58 58.00,238.20 58.00,238.20
             49.93,239.81 33.63,244.00 26.00,242.53
             13.38,240.11 10.13,227.10 10.00,216.00
             9.79,198.09 14.82,178.84 37.00,180.09
             37.00,180.09 64.00,184.58 64.00,184.58
             64.00,184.58 102.00,191.26 102.00,191.26
             102.00,191.26 128.00,196.00 128.00,196.00 Z
           M 208.00,199.00
           C 208.00,199.00 221.00,189.38 221.00,189.38
             225.83,186.52 230.97,192.01 234.98,194.55
             236.89,195.76 240.03,197.19 239.27,200.00
             238.43,203.09 233.74,204.74 231.00,205.56
             223.47,207.80 212.55,205.87 208.00,199.00 Z
           M 249.00,204.87
           C 253.56,205.19 265.52,211.51 264.97,216.99
             264.62,220.49 257.95,224.40 255.00,225.74
             241.65,231.83 215.88,232.89 202.00,228.14
             196.48,226.25 191.81,224.27 187.06,220.77
             185.17,219.38 183.12,217.79 184.17,215.15
             184.84,213.45 187.57,211.36 189.00,210.21
             191.50,208.22 194.71,205.58 198.00,205.33
             201.65,205.04 204.87,207.51 208.00,209.02
             211.62,210.76 220.06,213.63 224.00,213.90
             237.75,214.85 242.90,207.38 249.00,204.87 Z
           M 171.00,215.00
           C 171.00,215.00 171.00,216.00 171.00,216.00
             171.00,216.00 170.00,215.00 170.00,215.00
             170.00,215.00 171.00,215.00 171.00,215.00 Z
           M 289.00,237.00
           C 287.50,234.37 283.08,227.25 284.35,224.31
             286.40,219.57 307.68,222.93 298.85,231.53
             297.92,232.44 296.13,233.71 295.00,234.39
             292.99,235.60 291.18,236.22 289.00,237.00 Z
           M 153.00,224.39
           C 155.48,224.06 160.42,223.36 162.22,225.60
             164.49,228.43 160.14,237.14 156.87,237.94
             153.45,238.78 143.17,234.57 144.49,230.06
             145.42,226.89 150.20,225.23 153.00,224.39 Z
           M 294.00,245.00
           C 298.28,242.37 303.30,239.24 307.00,235.90
             309.60,233.55 312.51,229.83 316.00,229.02
             319.28,228.26 337.35,232.13 342.00,232.92
             342.00,232.92 405.00,244.03 405.00,244.03
             415.34,245.67 425.30,245.05 431.89,255.00
             440.48,267.96 433.70,288.15 425.77,299.91
             421.35,306.47 416.26,311.60 408.00,311.96
             395.22,312.52 386.54,305.07 376.58,298.36
             376.58,298.36 362.00,289.80 362.00,289.80
             362.00,289.80 340.00,276.00 340.00,276.00
             340.00,276.00 308.00,256.05 308.00,256.05
             303.05,252.91 296.82,250.34 294.00,245.00 Z
           M 155.00,248.00
           C 150.81,253.32 144.55,256.73 139.00,260.50
             139.00,260.50 112.00,279.00 112.00,279.00
             112.00,279.00 74.00,304.43 74.00,304.43
             69.01,307.63 64.46,311.71 59.00,314.09
             47.76,318.98 37.39,318.38 29.41,308.00
             27.56,305.59 24.02,298.02 22.83,295.00
             21.01,290.43 19.23,282.90 19.04,278.00
             18.70,269.25 21.13,260.81 29.00,256.00
             33.40,253.31 47.40,250.26 53.00,248.99
             53.00,248.99 99.00,239.11 99.00,239.11
             99.00,239.11 120.00,234.74 120.00,234.74
             122.84,234.21 127.27,232.89 130.00,233.18
             134.70,233.70 137.49,237.87 141.00,240.61
             145.18,243.88 150.33,245.58 155.00,248.00 Z
           M 260.00,253.91
           C 268.22,258.02 272.01,260.63 265.00,269.00
             265.00,269.00 270.00,273.00 270.00,273.00
             262.90,272.85 260.03,270.65 258.00,277.00
             260.68,277.00 270.46,276.24 271.83,278.58
             274.46,283.06 264.97,283.03 263.00,282.99
             255.50,282.82 248.52,278.93 241.00,280.57
             237.62,281.23 227.31,286.18 225.72,280.57
             224.84,277.53 230.09,274.65 233.00,271.00
             225.40,266.77 227.15,264.43 231.00,258.00
             226.90,255.47 227.25,253.64 231.00,251.00
             231.00,251.00 228.00,244.00 228.00,244.00
             228.00,244.00 240.00,248.00 240.00,248.00
             240.00,248.00 240.00,244.00 240.00,244.00
             251.40,248.56 255.52,238.32 264.98,242.65
             268.92,244.46 271.72,250.73 267.44,253.91
             265.46,255.24 262.22,254.38 260.00,253.91 Z
           M 201.00,277.00
           C 201.00,277.00 191.40,282.84 191.40,282.84
             191.40,282.84 185.00,277.00 185.00,277.00
             185.00,277.00 187.00,268.00 187.00,268.00
             187.00,268.00 188.00,267.00 188.00,267.00
             188.00,267.00 202.00,265.00 202.00,265.00
             202.00,265.00 199.00,243.00 199.00,243.00
             209.26,245.62 209.73,239.28 216.83,244.15
             224.62,249.48 221.85,263.58 221.99,272.01
             222.03,275.00 222.39,280.94 220.15,283.14
             216.98,286.24 212.22,282.92 208.00,282.61
             206.34,282.48 204.02,282.98 202.60,281.94
             201.04,280.80 201.14,278.70 201.00,277.00 Z
           M 177.00,243.00
           C 179.01,244.06 180.60,245.20 183.00,245.07
             184.57,244.99 195.68,239.72 197.08,250.00
             197.08,250.00 197.08,256.00 197.08,256.00
             196.97,258.25 197.43,262.31 195.43,263.79
             193.17,265.45 185.94,263.61 183.02,268.27
             179.70,273.58 186.09,280.23 178.00,283.00
             178.00,283.00 177.22,262.00 177.22,262.00
             177.22,262.00 177.88,255.00 177.88,255.00
             177.88,255.00 177.00,243.00 177.00,243.00 Z
           M 255.00,247.00
           C 257.73,251.51 259.86,249.95 262.00,246.00
             262.00,246.00 255.00,247.00 255.00,247.00 Z
           M 205.00,253.00
           C 205.00,253.00 214.00,253.00 214.00,253.00
             214.99,245.56 206.95,247.42 205.00,253.00 Z
           M 183.00,254.00
           C 183.00,254.00 191.00,252.00 191.00,252.00
             187.34,248.67 184.65,249.31 183.00,254.00 Z
           M 244.00,251.00
           C 244.00,251.00 244.00,253.00 244.00,253.00
             244.00,253.00 249.00,253.00 249.00,253.00
             249.00,253.00 248.00,250.00 248.00,250.00
             248.00,250.00 244.00,251.00 244.00,251.00 Z
           M 234.00,252.00
           C 234.00,252.00 238.00,260.00 238.00,260.00
             238.00,260.00 231.00,262.00 231.00,262.00
             231.00,262.00 231.00,264.00 231.00,264.00
             231.00,264.00 241.17,270.91 241.17,270.91
             241.17,270.91 249.00,270.91 249.00,270.91
             249.00,270.91 249.00,269.00 249.00,269.00
             249.00,269.00 242.00,270.00 242.00,270.00
             242.00,270.00 239.00,259.00 239.00,259.00
             242.47,259.00 245.55,259.74 248.00,257.00
             242.10,257.75 241.31,256.05 239.00,251.00
             239.00,251.00 234.00,252.00 234.00,252.00 Z
           M 205.00,260.00
           C 205.00,260.00 214.00,259.00 214.00,259.00
             211.10,254.73 207.44,256.11 205.00,260.00 Z
           M 183.00,262.00
           C 183.00,262.00 191.00,260.00 191.00,260.00
             191.00,260.00 191.00,258.00 191.00,258.00
             186.62,257.77 185.26,258.14 183.00,262.00 Z
           M 294.00,258.00
           C 294.00,258.00 341.00,286.55 341.00,286.55
             341.00,286.55 387.71,316.58 387.71,316.58
             394.55,322.18 399.47,328.74 398.91,338.00
             397.89,354.72 379.56,375.42 362.00,374.74
             349.26,374.25 342.87,364.37 336.28,355.00
             336.28,355.00 302.28,308.00 302.28,308.00
             299.66,304.25 288.23,289.07 287.61,286.00
             286.92,282.57 289.80,277.37 290.91,274.00
             290.91,274.00 294.00,258.00 294.00,258.00 Z
           M 157.00,261.00
           C 157.65,265.58 159.54,273.83 161.34,278.00
             162.60,280.93 166.18,286.12 165.86,289.00
             165.63,291.09 163.38,294.19 162.21,296.00
             162.21,296.00 151.10,312.00 151.10,312.00
             151.10,312.00 136.26,335.00 136.26,335.00
             136.26,335.00 119.22,360.00 119.22,360.00
             113.72,368.53 107.98,378.41 97.00,379.97
             81.98,382.10 67.82,368.08 60.88,356.00
             58.42,351.72 55.84,344.99 56.34,340.00
             57.60,327.27 66.45,321.53 76.00,314.98
             76.00,314.98 115.00,287.83 115.00,287.83
             115.00,287.83 140.00,270.59 140.00,270.59
             145.00,267.12 151.09,262.24 157.00,261.00 Z
           M 205.00,265.00
           C 205.00,265.00 211.00,269.00 211.00,269.00
             211.00,269.00 207.00,271.00 207.00,271.00
             207.00,271.00 212.00,276.00 212.00,276.00
             212.00,276.00 207.00,276.00 207.00,276.00
             208.83,281.72 212.94,281.63 214.40,278.69
             215.07,277.34 214.99,274.53 215.00,273.00
             215.05,265.71 214.08,258.58 205.00,265.00 Z
           M 258.00,263.00
           C 258.00,263.00 258.00,264.00 258.00,264.00
             258.00,264.00 259.00,263.00 259.00,263.00
             259.00,263.00 258.00,263.00 258.00,263.00 Z
           M 196.00,271.00
           C 196.00,271.00 201.00,272.00 201.00,272.00
             201.00,272.00 196.00,271.00 196.00,271.00 Z
           M 188.00,276.00
           C 190.87,275.45 190.87,275.71 192.00,273.00
             192.00,273.00 188.00,276.00 188.00,276.00 Z
           M 234.00,277.00
           C 234.00,277.00 250.00,276.00 250.00,276.00
             247.22,273.95 239.47,272.39 236.29,274.21
             234.85,275.04 234.75,275.76 234.00,277.00 Z
           M 281.00,295.00
           C 281.00,295.00 314.02,342.00 314.02,342.00
             314.02,342.00 330.29,365.00 330.29,365.00
             333.98,370.12 338.03,374.66 339.47,381.00
             344.47,402.91 315.67,416.27 298.00,417.68
             290.82,418.25 281.35,415.99 276.99,409.82
             274.17,405.82 271.74,393.25 270.58,388.00
             270.58,388.00 260.42,344.00 260.42,344.00
             260.42,344.00 255.74,322.00 255.74,322.00
             255.24,319.32 253.71,314.63 254.64,312.13
             255.68,309.30 259.50,307.95 262.00,306.57
             267.71,303.39 276.46,296.32 281.00,295.00 Z
           M 174.01,298.20
           C 178.57,299.58 183.75,305.34 192.00,308.57
             194.62,309.60 198.18,310.38 199.24,313.22
             200.39,315.54 199.48,319.55 199.24,322.00
             199.24,322.00 195.75,341.00 195.75,341.00
             195.75,341.00 187.26,385.00 187.26,385.00
             186.18,390.81 184.01,405.34 181.56,410.00
             177.64,417.45 170.94,420.15 163.00,420.83
             157.17,421.32 149.49,419.27 144.00,417.31
             139.24,415.61 135.03,413.76 131.00,410.64
             123.78,405.03 117.38,397.68 117.58,388.00
             117.74,380.52 123.96,371.13 128.00,365.00
             128.00,365.00 150.82,330.00 150.82,330.00
             150.82,330.00 164.81,308.00 164.81,308.00
             167.34,303.88 169.25,299.75 174.01,298.20 Z
           M 211.00,314.87
           C 211.00,314.87 232.00,314.87 232.00,314.87
             234.79,314.21 241.09,313.25 243.42,314.87
             245.17,316.36 245.57,319.94 246.00,322.00
             246.00,322.00 249.13,337.00 249.13,337.00
             249.13,337.00 257.42,375.00 257.42,375.00
             259.13,382.73 262.67,397.63 262.96,405.00
             263.69,423.91 248.64,430.80 232.00,431.00
             223.74,431.09 209.49,430.61 203.17,424.78
             191.66,414.14 195.30,401.10 197.74,388.00
             197.74,388.00 201.75,366.00 201.75,366.00
             201.75,366.00 211.00,314.87 211.00,314.87 Z" />
</svg>
