<svg xmlns="http://www.w3.org/2000/svg" width="152.4mm" height="37.6767mm" viewBox="0 0 1800 445">
  <path id="Selection" fill="#c33" stroke="#fff" stroke-width="1" d="M 185.00,17.00
           C 177.45,14.85 176.13,12.38 167.00,11.70
             163.75,11.14 162.14,11.64 159.00,11.70
             144.78,13.22 131.83,17.90 121.17,27.76
             118.12,30.58 114.30,35.31 112.42,39.00
             111.30,41.21 110.66,44.57 108.57,45.98
             105.47,48.07 100.16,45.68 90.00,48.67
             78.76,51.96 69.41,59.96 62.29,69.00
             58.21,74.17 54.27,81.42 53.30,88.00
             52.36,94.35 54.35,98.04 52.31,100.42
             51.02,101.92 46.14,102.96 44.00,103.88
             39.94,105.62 36.27,108.22 33.00,111.17
             22.05,121.05 14.92,137.31 14.09,152.00
             13.56,161.46 17.21,165.23 21.00,173.00
             16.56,175.28 12.55,178.08 9.39,182.01
             -1.28,195.29 -2.57,220.56 3.63,236.00
             5.20,239.91 6.97,242.80 10.09,245.68
             11.98,247.41 15.58,249.31 15.71,252.09
             15.80,254.06 12.76,258.99 11.76,261.00
             9.49,265.59 8.65,268.91 8.17,274.00
             6.57,290.76 15.90,313.95 30.04,323.45
             34.91,326.72 40.27,328.19 46.00,329.00
             45.51,335.04 44.32,340.88 45.32,347.00
             48.40,365.83 64.31,383.45 82.00,390.05
             86.15,391.60 91.59,392.29 96.00,391.76
             98.71,391.54 103.21,389.78 105.41,391.76
             106.94,393.02 107.44,396.98 108.04,399.00
             109.24,403.00 110.85,406.56 113.22,410.00
             122.91,424.09 143.15,432.92 160.00,433.00
             167.11,433.03 171.39,432.79 178.00,429.60
             180.51,428.39 185.12,424.48 187.68,425.32
             189.37,425.88 192.45,430.27 194.09,431.79
             196.55,434.08 201.92,437.38 205.00,438.87
             210.64,441.61 223.63,445.25 229.83,444.84
             234.73,444.52 236.75,443.08 241.00,442.32
             241.00,442.32 251.72,440.61 251.72,440.61
             260.38,437.94 269.25,429.62 272.00,421.00
             276.90,424.00 281.34,427.22 287.00,428.70
             306.49,433.80 331.01,424.34 343.53,409.00
             346.80,405.00 348.76,400.98 350.08,396.00
             350.67,393.76 350.91,389.19 352.60,387.77
             354.37,386.27 359.50,387.10 362.00,386.91
             362.00,386.91 380.00,383.01 380.00,383.01
             393.42,377.41 410.08,353.52 410.89,339.00
             411.16,334.28 409.45,328.48 408.00,324.00
             414.44,322.27 419.37,321.21 425.00,317.21
             440.47,306.24 448.39,283.51 446.91,265.00
             446.61,261.25 444.84,255.33 443.09,252.00
             442.14,250.18 439.28,246.47 439.69,244.51
             440.03,242.90 442.73,241.00 443.90,239.82
             446.58,237.11 448.16,234.47 449.66,231.00
             455.28,217.98 453.56,196.07 448.53,183.00
             446.55,177.84 444.16,173.99 439.98,170.30
             438.20,168.72 433.16,165.42 432.58,163.33
             432.09,161.61 433.90,158.67 434.53,157.00
             435.66,154.03 436.10,151.16 436.25,148.00
             436.89,134.87 429.44,117.55 421.96,107.00
             418.22,101.72 413.11,96.61 407.00,94.23
             403.53,92.88 395.66,92.15 394.02,89.69
             392.30,87.10 393.69,82.97 392.07,77.00
             389.66,68.08 382.46,58.14 375.00,52.79
             367.50,47.40 358.18,42.77 349.00,41.51
             343.06,40.58 339.09,42.82 336.57,41.51
             332.98,39.82 334.14,33.16 327.67,26.29
             318.92,16.98 299.83,9.15 287.00,9.00
             281.57,8.94 277.25,8.65 272.00,10.36
             269.28,11.24 263.18,14.66 261.04,14.28
             258.76,13.88 256.55,10.99 254.83,9.46
             251.76,6.75 248.75,5.03 245.00,3.43
             239.35,1.01 233.13,0.08 227.00,0.00
             211.89,-0.17 191.54,0.30 185.00,17.00 Z
           M 236.00,119.00
           C 230.53,116.32 227.10,109.50 225.00,104.00
             225.00,104.00 223.00,104.00 223.00,104.00
             220.76,110.30 217.85,116.95 211.00,119.00
             211.00,119.00 196.58,51.00 196.58,51.00
             194.86,43.21 190.55,28.39 193.26,21.00
             196.25,12.85 203.32,10.82 211.00,9.42
             224.13,7.04 245.24,6.60 250.74,22.00
             253.69,30.26 249.74,46.17 248.00,55.00
             248.00,55.00 236.00,119.00 236.00,119.00 Z
           M 259.00,147.00
           C 255.52,141.02 245.99,131.77 245.24,127.00
             244.65,123.25 248.46,103.96 249.39,99.00
             249.39,99.00 258.66,46.00 258.66,46.00
             260.51,37.27 260.92,26.55 269.04,21.13
             281.34,12.93 301.83,19.80 313.00,27.36
             318.94,31.38 324.36,37.27 323.78,45.00
             323.30,51.29 317.57,58.66 314.30,64.00
             314.30,64.00 304.61,79.00 304.61,79.00
             304.61,79.00 288.00,106.00 288.00,106.00
             288.00,106.00 270.62,133.00 270.62,133.00
             267.45,138.04 264.41,144.19 259.00,147.00 Z
           M 186.00,145.00
           C 178.21,138.91 162.57,114.41 155.72,105.00
             155.72,105.00 130.28,69.00 130.28,69.00
             126.68,63.85 120.83,56.34 120.20,50.00
             119.41,42.14 124.21,37.03 130.01,32.63
             140.42,24.74 161.42,16.23 174.00,23.28
             182.85,28.23 183.79,37.16 185.88,46.00
             185.88,46.00 197.88,99.00 197.88,99.00
             198.82,103.09 203.12,122.12 202.60,125.00
             201.91,128.82 189.56,140.28 186.00,145.00 Z
           M 288.00,131.00
           C 288.00,131.00 285.00,131.00 285.00,131.00
             282.63,136.10 279.77,139.08 275.00,142.00
             277.50,135.24 282.92,128.27 286.81,122.00
             286.81,122.00 315.67,78.00 315.67,78.00
             320.71,70.42 328.16,57.38 336.00,52.97
             351.80,44.07 375.54,62.88 380.66,76.00
             381.95,79.31 382.35,84.52 381.66,88.00
             380.13,95.69 371.07,102.35 365.00,106.70
             365.00,106.70 319.00,138.67 319.00,138.67
             319.00,138.67 304.00,148.93 304.00,148.93
             302.20,150.02 299.41,151.74 297.21,151.19
             292.51,150.01 289.00,135.41 288.00,131.00 Z
           M 180.00,157.00
           C 169.49,153.44 163.74,142.26 155.00,136.00
             155.00,136.00 148.00,155.00 148.00,155.00
             141.27,152.77 119.78,137.93 112.00,133.20
             112.00,133.20 79.00,112.42 79.00,112.42
             70.07,106.82 62.44,101.57 63.04,90.00
             63.78,75.80 84.77,56.77 99.00,56.04
             112.24,55.37 116.71,65.39 123.58,75.00
             123.58,75.00 163.37,130.00 163.37,130.00
             168.46,136.81 179.06,148.86 180.00,157.00 Z
           M 392.00,102.33
           C 410.89,100.40 419.79,119.55 423.84,135.00
             425.85,142.63 425.97,152.70 419.67,158.45
             413.61,163.98 398.29,165.77 390.00,167.65
             390.00,167.65 345.00,177.42 345.00,177.42
             345.00,177.42 317.02,183.33 317.02,183.33
             310.78,183.91 308.99,174.54 306.49,170.00
             305.48,168.16 303.18,164.99 303.01,163.00
             302.84,160.96 303.82,159.62 305.16,158.21
             305.16,158.21 333.00,139.14 333.00,139.14
             333.00,139.14 368.00,115.33 368.00,115.33
             375.93,110.05 382.51,104.60 392.00,102.33 Z
           M 52.00,111.30
           C 61.86,110.54 70.08,117.08 78.00,122.14
             78.00,122.14 123.00,150.48 123.00,150.48
             127.39,153.39 137.58,158.80 140.68,162.32
             145.28,167.54 138.96,176.10 136.23,181.00
             134.94,183.32 133.68,186.04 130.82,186.62
             129.11,186.96 123.00,185.76 121.00,185.39
             121.00,185.39 103.00,182.12 103.00,182.12
             103.00,182.12 83.00,178.92 83.00,178.92
             83.00,178.92 46.00,172.00 46.00,172.00
             34.40,169.63 25.33,166.56 24.19,153.00
             23.11,140.23 33.14,120.60 44.00,114.00
             46.65,112.39 49.02,111.88 52.00,111.30 Z
           M 249.00,193.00
           C 250.79,186.66 254.07,180.72 254.55,174.00
             255.27,163.71 252.33,153.75 246.98,145.01
             243.72,139.68 238.45,133.74 232.00,133.00
             232.00,133.00 227.00,129.00 227.00,129.00
             234.16,143.86 237.03,145.34 237.00,163.00
             236.99,169.37 235.85,179.37 230.00,183.00
             230.00,183.00 234.22,171.00 234.22,171.00
             234.75,166.95 233.00,165.56 232.79,162.00
             232.79,162.00 232.79,154.00 232.79,154.00
             232.48,147.01 229.31,140.39 225.00,135.00
             226.31,139.53 228.22,146.35 227.70,151.00
             227.52,152.59 226.97,155.96 225.46,156.83
             223.02,158.25 221.48,154.70 220.97,152.98
             219.09,147.07 220.52,141.87 220.97,136.00
             214.62,145.37 216.82,149.23 215.90,159.00
             215.90,159.00 213.50,169.00 213.50,169.00
             213.16,173.61 215.50,177.81 217.00,182.00
             212.49,179.10 210.96,173.10 210.29,168.00
             209.24,160.06 210.87,148.53 213.55,141.00
             213.55,141.00 218.00,130.00 218.00,130.00
             208.02,138.32 201.21,156.07 203.32,169.00
             204.65,177.13 208.04,181.14 210.00,188.00
             210.00,188.00 206.00,189.00 206.00,189.00
             203.84,185.21 200.30,179.02 199.05,175.00
             198.10,171.93 198.04,170.15 198.00,167.00
             197.78,148.01 203.65,147.02 210.00,132.00
             197.80,140.93 189.41,159.91 192.67,175.00
             194.80,184.89 196.93,185.07 201.00,193.00
             192.68,192.92 185.80,177.42 185.19,170.00
             183.75,152.70 199.53,136.17 212.00,126.42
             212.00,126.42 223.15,117.34 223.15,117.34
             225.42,116.70 226.99,118.55 228.34,120.06
             231.72,123.86 234.11,127.29 238.00,130.83
             251.97,143.55 265.32,161.35 257.40,181.00
             255.34,186.09 254.06,190.33 249.00,193.00 Z
           M 235.00,135.00
           C 245.78,144.15 249.36,159.51 247.42,173.00
             246.52,179.23 245.83,185.76 239.00,188.00
             239.00,188.00 243.68,174.00 243.68,174.00
             243.68,174.00 241.96,153.00 241.96,153.00
             241.96,153.00 235.00,135.00 235.00,135.00 Z
           M 286.00,144.00
           C 290.19,160.90 305.45,177.15 309.38,199.00
             310.13,203.12 311.17,216.67 306.74,218.83
             301.60,221.34 302.97,211.16 303.00,209.00
             303.18,191.00 297.07,182.51 289.37,167.00
             286.50,161.23 286.13,156.12 280.00,153.00
             280.00,153.00 270.76,170.00 270.76,170.00
             266.06,181.59 266.00,189.89 266.00,202.00
             264.50,201.68 263.44,201.59 262.02,200.83
             253.07,196.03 262.29,192.49 265.24,181.00
             266.85,174.73 265.62,165.80 266.31,163.00
             267.73,157.25 280.42,145.64 286.00,144.00 Z
           M 161.00,147.00
           C 163.85,150.98 167.24,154.52 171.00,157.68
             173.27,159.58 176.56,161.50 177.98,164.09
             177.98,164.09 181.36,179.00 181.36,179.00
             184.06,187.00 187.80,190.64 193.00,197.00
             189.67,201.23 187.01,203.08 182.00,205.00
             181.85,198.28 181.12,197.89 180.28,192.00
             178.13,176.81 175.28,163.52 162.00,154.00
             159.72,161.87 157.34,169.59 153.74,177.00
             149.87,184.97 144.74,193.10 143.32,202.00
             142.10,209.68 146.03,215.91 145.96,218.91
             145.87,223.04 141.35,225.04 138.00,226.00
             136.08,221.45 135.16,220.08 135.02,215.00
             134.63,201.29 141.97,187.28 147.52,175.00
             147.52,175.00 159.00,147.00 159.00,147.00
             159.00,147.00 161.00,147.00 161.00,147.00 Z
           M 282.00,163.00
           C 288.58,175.98 295.83,190.14 296.00,205.00
             296.02,207.11 296.43,212.58 294.46,213.83
             291.53,215.69 291.13,210.55 291.17,209.00
             291.44,199.77 290.03,184.61 283.00,178.00
             284.61,190.21 287.69,201.94 284.00,214.00
             275.90,202.80 279.97,187.67 281.00,175.00
             269.96,183.93 274.78,201.22 277.00,213.00
             272.10,210.07 272.07,205.27 272.00,200.00
             271.84,185.65 272.75,175.79 280.00,163.00
             280.00,163.00 282.00,163.00 282.00,163.00 Z
           M 220.00,178.00
           C 219.15,176.08 218.58,175.21 218.51,173.00
             218.48,171.91 218.78,170.08 219.15,169.06
             223.18,157.94 233.36,173.43 224.87,177.32
             223.85,177.78 221.22,177.89 220.00,178.00 Z
           M 165.00,167.00
           C 172.33,173.48 174.77,190.46 174.99,200.00
             175.10,204.91 175.40,211.94 171.00,215.00
             171.09,204.56 174.42,187.00 165.84,179.00
             166.90,190.16 167.53,197.67 165.84,209.00
             165.84,209.00 164.00,217.00 164.00,217.00
             160.64,214.66 160.91,211.89 160.75,208.00
             160.41,199.97 163.04,186.96 165.00,179.00
             153.95,187.52 153.00,205.66 157.00,218.00
             151.18,216.09 150.26,210.59 150.04,205.00
             149.58,193.69 154.41,189.26 159.22,180.00
             159.22,180.00 165.00,167.00 165.00,167.00 Z
           M 317.00,194.00
           C 323.94,190.47 329.64,190.16 337.00,188.50
             337.00,188.50 366.00,182.20 366.00,182.20
             366.00,182.20 404.00,174.55 404.00,174.55
             416.02,172.15 426.53,169.09 435.73,180.04
             438.77,183.67 440.21,189.45 441.37,194.00
             443.28,201.47 443.01,202.47 443.00,210.00
             442.98,223.24 440.37,234.54 425.00,235.81
             419.96,236.23 406.46,233.91 401.00,233.13
             401.00,233.13 352.00,225.20 352.00,225.20
             352.00,225.20 329.00,221.13 329.00,221.13
             326.52,220.76 321.63,220.53 320.02,218.42
             318.76,216.77 319.00,213.04 319.00,211.00
             319.00,211.00 319.00,206.00 319.00,206.00
             318.93,200.70 318.45,199.03 317.00,194.00 Z
           M 128.00,196.00
           C 128.00,196.00 126.01,211.00 126.01,211.00
             126.01,211.00 127.00,224.00 127.00,224.00
             127.00,224.00 95.00,230.58 95.00,230.58
             95.00,230.58 58.00,238.20 58.00,238.20
             49.93,239.81 33.63,244.00 26.00,242.53
             13.38,240.11 10.13,227.10 10.00,216.00
             9.79,198.09 14.82,178.84 37.00,180.09
             37.00,180.09 64.00,184.58 64.00,184.58
             64.00,184.58 102.00,191.26 102.00,191.26
             102.00,191.26 128.00,196.00 128.00,196.00 Z
           M 208.00,199.00
           C 208.00,199.00 221.00,189.38 221.00,189.38
             225.83,186.52 230.97,192.01 234.98,194.55
             236.89,195.76 240.03,197.19 239.27,200.00
             238.43,203.09 233.74,204.74 231.00,205.56
             223.47,207.80 212.55,205.87 208.00,199.00 Z
           M 249.00,204.87
           C 253.56,205.19 265.52,211.51 264.97,216.99
             264.62,220.49 257.95,224.40 255.00,225.74
             241.65,231.83 215.88,232.89 202.00,228.14
             196.48,226.25 191.81,224.27 187.06,220.77
             185.17,219.38 183.12,217.79 184.17,215.15
             184.84,213.45 187.57,211.36 189.00,210.21
             191.50,208.22 194.71,205.58 198.00,205.33
             201.65,205.04 204.87,207.51 208.00,209.02
             211.62,210.76 220.06,213.63 224.00,213.90
             237.75,214.85 242.90,207.38 249.00,204.87 Z
           M 171.00,215.00
           C 171.00,215.00 171.00,216.00 171.00,216.00
             171.00,216.00 170.00,215.00 170.00,215.00
             170.00,215.00 171.00,215.00 171.00,215.00 Z
           M 289.00,237.00
           C 287.50,234.37 283.08,227.25 284.35,224.31
             286.40,219.57 307.68,222.93 298.85,231.53
             297.92,232.44 296.13,233.71 295.00,234.39
             292.99,235.60 291.18,236.22 289.00,237.00 Z
           M 153.00,224.39
           C 155.48,224.06 160.42,223.36 162.22,225.60
             164.49,228.43 160.14,237.14 156.87,237.94
             153.45,238.78 143.17,234.57 144.49,230.06
             145.42,226.89 150.20,225.23 153.00,224.39 Z
           M 294.00,245.00
           C 298.28,242.37 303.30,239.24 307.00,235.90
             309.60,233.55 312.51,229.83 316.00,229.02
             319.28,228.26 337.35,232.13 342.00,232.92
             342.00,232.92 405.00,244.03 405.00,244.03
             415.34,245.67 425.30,245.05 431.89,255.00
             440.48,267.96 433.70,288.15 425.77,299.91
             421.35,306.47 416.26,311.60 408.00,311.96
             395.22,312.52 386.54,305.07 376.58,298.36
             376.58,298.36 362.00,289.80 362.00,289.80
             362.00,289.80 340.00,276.00 340.00,276.00
             340.00,276.00 308.00,256.05 308.00,256.05
             303.05,252.91 296.82,250.34 294.00,245.00 Z
           M 155.00,248.00
           C 150.81,253.32 144.55,256.73 139.00,260.50
             139.00,260.50 112.00,279.00 112.00,279.00
             112.00,279.00 74.00,304.43 74.00,304.43
             69.01,307.63 64.46,311.71 59.00,314.09
             47.76,318.98 37.39,318.38 29.41,308.00
             27.56,305.59 24.02,298.02 22.83,295.00
             21.01,290.43 19.23,282.90 19.04,278.00
             18.70,269.25 21.13,260.81 29.00,256.00
             33.40,253.31 47.40,250.26 53.00,248.99
             53.00,248.99 99.00,239.11 99.00,239.11
             99.00,239.11 120.00,234.74 120.00,234.74
             122.84,234.21 127.27,232.89 130.00,233.18
             134.70,233.70 137.49,237.87 141.00,240.61
             145.18,243.88 150.33,245.58 155.00,248.00 Z
           M 263.00,255.00
           C 269.81,259.89 270.58,262.34 265.00,269.00
             265.00,269.00 270.00,273.00 270.00,273.00
             262.90,272.85 260.03,270.65 258.00,277.00
             260.68,277.00 270.46,276.24 271.83,278.58
             274.46,283.06 264.97,283.03 263.00,282.99
             255.50,282.82 248.52,278.93 241.00,280.57
             237.62,281.23 227.31,286.18 225.72,280.57
             224.84,277.53 230.09,274.65 233.00,271.00
             225.40,266.77 227.15,264.43 231.00,258.00
             226.90,255.47 227.25,253.64 231.00,251.00
             231.00,251.00 228.00,244.00 228.00,244.00
             228.00,244.00 240.00,248.00 240.00,248.00
             240.00,248.00 240.00,244.00 240.00,244.00
             251.40,248.56 255.52,238.32 264.98,242.65
             270.86,245.35 272.05,253.92 263.00,255.00 Z
           M 201.00,277.00
           C 201.00,277.00 191.40,282.84 191.40,282.84
             191.40,282.84 185.00,277.00 185.00,277.00
             185.00,277.00 187.00,268.00 187.00,268.00
             187.00,268.00 188.00,267.00 188.00,267.00
             188.00,267.00 202.00,265.00 202.00,265.00
             202.00,265.00 199.00,243.00 199.00,243.00
             209.26,245.62 209.73,239.28 216.83,244.15
             224.62,249.48 221.85,263.58 221.99,272.01
             222.03,275.00 222.39,280.94 220.15,283.14
             216.98,286.24 212.22,282.92 208.00,282.61
             206.34,282.48 204.02,282.98 202.60,281.94
             201.04,280.80 201.14,278.70 201.00,277.00 Z
           M 177.00,243.00
           C 179.01,244.06 180.60,245.20 183.00,245.07
             184.57,244.99 195.68,239.72 197.08,250.00
             197.08,250.00 197.08,256.00 197.08,256.00
             196.97,258.25 197.43,262.31 195.43,263.79
             193.17,265.45 185.94,263.61 183.02,268.27
             179.70,273.58 186.09,280.23 178.00,283.00
             178.00,283.00 177.22,262.00 177.22,262.00
             177.22,262.00 177.88,255.00 177.88,255.00
             177.88,255.00 177.00,243.00 177.00,243.00 Z
           M 294.00,258.00
           C 294.00,258.00 341.00,286.55 341.00,286.55
             341.00,286.55 387.71,316.58 387.71,316.58
             394.55,322.18 399.47,328.74 398.91,338.00
             397.89,354.72 379.56,375.42 362.00,374.74
             349.26,374.25 342.87,364.37 336.28,355.00
             336.28,355.00 302.28,308.00 302.28,308.00
             299.66,304.25 288.23,289.07 287.61,286.00
             286.92,282.57 289.80,277.37 290.91,274.00
             290.91,274.00 294.00,258.00 294.00,258.00 Z
           M 157.00,261.00
           C 157.65,265.58 159.54,273.83 161.34,278.00
             162.60,280.93 166.18,286.12 165.86,289.00
             165.63,291.09 163.38,294.19 162.21,296.00
             162.21,296.00 151.10,312.00 151.10,312.00
             151.10,312.00 136.26,335.00 136.26,335.00
             136.26,335.00 119.22,360.00 119.22,360.00
             113.72,368.53 107.98,378.41 97.00,379.97
             81.98,382.10 67.82,368.08 60.88,356.00
             58.42,351.72 55.84,344.99 56.34,340.00
             57.60,327.27 66.45,321.53 76.00,314.98
             76.00,314.98 115.00,287.83 115.00,287.83
             115.00,287.83 140.00,270.59 140.00,270.59
             145.00,267.12 151.09,262.24 157.00,261.00 Z
           M 281.00,295.00
           C 281.00,295.00 314.02,342.00 314.02,342.00
             314.02,342.00 330.29,365.00 330.29,365.00
             333.98,370.12 338.03,374.66 339.47,381.00
             344.47,402.91 315.67,416.27 298.00,417.68
             290.82,418.25 281.35,415.99 276.99,409.82
             274.17,405.82 271.74,393.25 270.58,388.00
             270.58,388.00 260.42,344.00 260.42,344.00
             260.42,344.00 255.74,322.00 255.74,322.00
             255.24,319.32 253.71,314.63 254.64,312.13
             255.68,309.30 259.50,307.95 262.00,306.57
             267.71,303.39 276.46,296.32 281.00,295.00 Z
           M 174.01,298.20
           C 178.57,299.58 183.75,305.34 192.00,308.57
             194.62,309.60 198.18,310.38 199.24,313.22
             200.39,315.54 199.48,319.55 199.24,322.00
             199.24,322.00 195.75,341.00 195.75,341.00
             195.75,341.00 187.26,385.00 187.26,385.00
             186.18,390.81 184.01,405.34 181.56,410.00
             177.64,417.45 170.94,420.15 163.00,420.83
             157.17,421.32 149.49,419.27 144.00,417.31
             139.24,415.61 135.03,413.76 131.00,410.64
             123.78,405.03 117.38,397.68 117.58,388.00
             117.74,380.52 123.96,371.13 128.00,365.00
             128.00,365.00 150.82,330.00 150.82,330.00
             150.82,330.00 164.81,308.00 164.81,308.00
             167.34,303.88 169.25,299.75 174.01,298.20 Z
           M 211.00,314.87
           C 211.00,314.87 232.00,314.87 232.00,314.87
             234.79,314.21 241.09,313.25 243.42,314.87
             245.17,316.36 245.57,319.94 246.00,322.00
             246.00,322.00 249.13,337.00 249.13,337.00
             249.13,337.00 257.42,375.00 257.42,375.00
             259.13,382.73 262.67,397.63 262.96,405.00
             263.69,423.91 248.64,430.80 232.00,431.00
             223.74,431.09 209.49,430.61 203.17,424.78
             191.66,414.14 195.30,401.10 197.74,388.00
             197.74,388.00 201.75,366.00 201.75,366.00
             201.75,366.00 211.00,314.87 211.00,314.87 Z
           M 598.88,100.42
           C 598.88,102.77 598.25,104.62 597.00,105.97
             595.76,107.32 594.04,108.00 591.83,108.00
             591.83,108.00 584.48,108.00 584.48,108.00
             584.48,108.00 582.02,102.00 582.02,102.00
             582.02,102.00 589.92,102.48 589.92,102.48
             590.63,102.51 591.24,102.23 591.77,101.67
             592.30,101.10 592.56,100.45 592.56,99.72
             592.56,99.72 592.56,64.00 592.56,64.00
             592.56,64.00 569.50,64.00 569.50,64.00
             569.50,64.00 569.50,38.00 569.50,38.00
             569.50,38.00 598.88,38.00 598.88,38.00
             598.88,38.00 598.88,100.42 598.88,100.42 Z
           M 592.56,48.00
           C 592.56,48.00 592.56,44.00 592.56,44.00
             592.56,44.00 575.78,44.00 575.78,44.00
             575.78,44.00 575.78,48.00 575.78,48.00
             575.78,48.00 592.56,48.00 592.56,48.00 Z
           M 592.56,58.00
           C 592.56,58.00 592.56,54.00 592.56,54.00
             592.56,54.00 575.78,54.00 575.78,54.00
             575.78,54.00 575.78,58.00 575.78,58.00
             575.78,58.00 592.56,58.00 592.56,58.00 Z
           M 563.34,64.00
           C 563.34,64.00 540.44,64.00 540.44,64.00
             540.44,64.00 540.44,108.00 540.44,108.00
             540.44,108.00 534.12,108.00 534.12,108.00
             534.12,108.00 534.12,38.00 534.12,38.00
             534.12,38.00 563.34,38.00 563.34,38.00
             563.34,38.00 563.34,64.00 563.34,64.00 Z
           M 557.06,48.00
           C 557.06,48.00 557.06,44.00 557.06,44.00
             557.06,44.00 540.44,44.00 540.44,44.00
             540.44,44.00 540.44,48.00 540.44,48.00
             540.44,48.00 557.06,48.00 557.06,48.00 Z
           M 557.06,58.00
           C 557.06,58.00 557.06,54.00 557.06,54.00
             557.06,54.00 540.44,54.00 540.44,54.00
             540.44,54.00 540.44,58.00 540.44,58.00
             540.44,58.00 557.06,58.00 557.06,58.00 Z
           M 589.16,88.00
           C 589.16,88.00 578.30,88.00 578.30,88.00
             578.30,88.00 578.30,105.00 578.30,105.00
             578.30,105.00 571.97,105.00 571.97,105.00
             571.97,105.00 571.97,88.00 571.97,88.00
             571.97,88.00 562.94,88.00 562.94,88.00
             560.85,96.64 555.60,102.64 547.17,106.00
             547.17,106.00 543.08,101.25 543.08,101.25
             551.10,98.40 555.61,93.98 556.61,88.00
             556.61,88.00 545.11,88.00 545.11,88.00
             545.11,88.00 545.11,82.00 545.11,82.00
             545.11,82.00 557.06,82.00 557.06,82.00
             557.06,82.00 557.06,75.00 557.06,75.00
             557.06,75.00 547.66,75.00 547.66,75.00
             547.66,75.00 547.66,69.00 547.66,69.00
             547.66,69.00 586.08,69.00 586.08,69.00
             586.08,69.00 586.08,75.00 586.08,75.00
             586.08,75.00 578.30,75.00 578.30,75.00
             578.30,75.00 578.30,82.00 578.30,82.00
             578.30,82.00 589.16,82.00 589.16,82.00
             589.16,82.00 589.16,88.00 589.16,88.00 Z
           M 571.97,82.00
           C 571.97,82.00 571.97,75.00 571.97,75.00
             571.97,75.00 563.34,75.00 563.34,75.00
             563.34,75.00 563.34,82.00 563.34,82.00
             563.34,82.00 571.97,82.00 571.97,82.00 Z
           M 628.25,51.73
           C 628.25,51.73 622.94,56.00 622.94,56.00
             619.80,50.20 616.04,45.77 611.64,42.72
             611.64,42.72 616.53,39.00 616.53,39.00
             621.75,42.62 625.66,46.87 628.25,51.73 Z
           M 682.67,94.00
           C 682.67,94.00 659.78,94.00 659.78,94.00
             659.78,94.00 659.78,101.00 659.78,101.00
             659.78,101.00 653.45,101.00 653.45,101.00
             653.45,101.00 653.45,94.00 653.45,94.00
             653.45,94.00 630.48,94.00 630.48,94.00
             630.48,94.00 630.48,88.00 630.48,88.00
             630.48,88.00 653.45,88.00 653.45,88.00
             653.45,88.00 653.45,84.00 653.45,84.00
             653.45,84.00 635.38,84.00 635.38,84.00
             635.38,84.00 635.38,59.00 635.38,59.00
             635.38,59.00 653.45,59.00 653.45,59.00
             653.45,59.00 653.45,56.00 653.45,56.00
             653.45,56.00 638.30,56.00 638.30,56.00
             638.30,56.00 638.30,50.00 638.30,50.00
             638.30,50.00 653.45,50.00 653.45,50.00
             653.45,50.00 653.45,46.00 653.45,46.00
             653.45,46.00 659.78,46.00 659.78,46.00
             659.78,46.00 659.78,50.00 659.78,50.00
             659.78,50.00 675.06,50.00 675.06,50.00
             675.06,50.00 675.06,45.00 675.06,45.00
             675.06,45.00 637.53,45.00 637.53,45.00
             637.53,45.00 637.53,52.00 637.53,52.00
             637.53,52.00 631.25,52.00 631.25,52.00
             631.25,52.00 631.25,39.00 631.25,39.00
             631.25,39.00 681.38,39.00 681.38,39.00
             681.38,39.00 681.38,52.00 681.38,52.00
             681.38,52.00 675.30,52.00 675.30,52.00
             675.30,52.00 675.30,56.00 675.30,56.00
             675.30,56.00 659.78,56.00 659.78,56.00
             659.78,56.00 659.78,59.00 659.78,59.00
             659.78,59.00 677.69,59.00 677.69,59.00
             677.69,59.00 677.69,84.00 677.69,84.00
             677.69,84.00 659.78,84.00 659.78,84.00
             659.78,84.00 659.78,88.00 659.78,88.00
             659.78,88.00 682.67,88.00 682.67,88.00
             682.67,88.00 682.67,94.00 682.67,94.00 Z
           M 671.41,68.00
           C 671.41,68.00 671.41,65.00 671.41,65.00
             671.41,65.00 659.78,65.00 659.78,65.00
             659.78,65.00 659.78,68.00 659.78,68.00
             659.78,68.00 671.41,68.00 671.41,68.00 Z
           M 653.45,68.00
           C 653.45,68.00 653.45,65.00 653.45,65.00
             653.45,65.00 641.70,65.00 641.70,65.00
             641.70,65.00 641.70,68.00 641.70,68.00
             641.70,68.00 653.45,68.00 653.45,68.00 Z
           M 671.41,78.00
           C 671.41,78.00 671.41,74.00 671.41,74.00
             671.41,74.00 659.78,74.00 659.78,74.00
             659.78,74.00 659.78,78.00 659.78,78.00
             659.78,78.00 671.41,78.00 671.41,78.00 Z
           M 653.45,78.00
           C 653.45,78.00 653.45,74.00 653.45,74.00
             653.45,74.00 641.70,74.00 641.70,74.00
             641.70,74.00 641.70,78.00 641.70,78.00
             641.70,78.00 653.45,78.00 653.45,78.00 Z
           M 684.95,101.67
           C 684.95,101.67 682.52,108.00 682.52,108.00
             682.52,108.00 640.61,108.00 640.61,108.00
             632.37,108.00 626.20,105.91 622.09,101.75
             622.09,101.75 613.83,110.00 613.83,110.00
             613.83,110.00 609.08,105.25 609.08,105.25
             612.97,102.32 616.35,99.36 619.22,96.34
             619.22,96.34 619.22,72.00 619.22,72.00
             619.22,72.00 610.66,72.00 610.66,72.00
             610.66,72.00 610.66,66.00 610.66,66.00
             610.66,66.00 625.41,66.00 625.41,66.00
             625.41,66.00 625.41,96.75 625.41,96.75
             626.78,98.27 628.95,99.53 631.91,100.52
             634.86,101.51 639.67,102.00 646.33,102.00
             646.33,102.00 677.30,102.00 677.30,102.00
             677.30,102.00 684.95,101.67 684.95,101.67 Z
           M 728.50,67.00
           C 730.12,67.00 731.49,67.59 732.61,68.77
             733.73,69.93 734.30,71.34 734.30,72.98
             734.30,74.65 733.73,76.07 732.61,77.25
             731.49,78.42 730.12,79.00 728.50,79.00
             726.88,79.00 725.50,78.42 724.38,77.25
             723.26,76.07 722.70,74.65 722.70,72.98
             722.70,71.34 723.26,69.93 724.38,68.77
             725.50,67.59 726.88,67.00 728.50,67.00 Z
           M 844.77,47.00
           C 844.77,47.00 788.91,47.00 788.91,47.00
             788.91,47.00 788.91,73.77 788.91,73.77
             788.91,84.43 787.83,92.50 785.69,97.95
             783.54,103.40 780.71,107.75 777.20,111.00
             777.20,111.00 772.14,106.78 772.14,106.78
             778.94,99.84 782.34,89.73 782.34,76.45
             782.34,76.45 782.34,41.00 782.34,41.00
             782.34,41.00 844.77,41.00 844.77,41.00
             844.77,41.00 844.77,47.00 844.77,47.00 Z
           M 846.17,91.00
           C 844.95,98.18 843.48,102.64 841.75,104.39
             840.02,106.13 837.79,107.00 835.06,107.00
             835.06,107.00 807.19,107.00 807.19,107.00
             805.41,107.00 803.68,106.36 802.02,105.09
             800.36,103.82 799.53,102.38 799.53,100.75
             799.53,100.75 799.53,57.00 799.53,57.00
             799.53,57.00 832.31,57.00 832.31,57.00
             832.31,57.00 832.31,79.53 832.31,79.53
             832.31,81.25 831.57,82.93 830.09,84.56
             828.62,86.19 827.04,87.00 825.34,87.00
             825.34,87.00 818.12,87.00 818.12,87.00
             818.12,87.00 814.89,80.00 814.89,80.00
             817.67,80.67 820.05,81.00 822.02,81.00
             823.45,81.00 824.48,80.85 825.09,80.55
             825.72,80.23 826.03,79.46 826.03,78.22
             826.03,78.22 826.03,63.00 826.03,63.00
             826.03,63.00 805.86,63.00 805.86,63.00
             805.86,63.00 805.86,98.39 805.86,98.39
             806.45,100.13 807.45,101.00 808.86,101.00
             808.86,101.00 835.64,101.00 835.64,101.00
             836.77,101.00 837.64,100.04 838.25,98.11
             838.86,96.17 839.38,92.80 839.81,88.00
             839.81,88.00 846.17,91.00 846.17,91.00 Z
           M 928.36,62.25
           C 928.36,62.25 924.09,67.00 924.09,67.00
             921.45,65.40 918.80,63.56 916.16,61.48
             916.16,61.48 916.16,66.00 916.16,66.00
             916.16,66.00 904.20,66.00 904.20,66.00
             904.20,66.00 904.20,75.00 904.20,75.00
             904.20,75.00 922.97,75.00 922.97,75.00
             922.97,75.00 922.97,81.00 922.97,81.00
             922.97,81.00 904.20,81.00 904.20,81.00
             904.20,81.00 904.20,101.66 904.20,101.66
             904.20,104.16 903.68,106.03 902.62,107.28
             901.57,108.53 900.23,109.30 898.59,109.58
             896.96,109.86 893.71,110.00 888.84,110.00
             888.84,110.00 886.61,104.00 886.61,104.00
             889.66,104.00 892.34,104.00 894.64,104.00
             896.64,104.00 897.64,103.21 897.64,101.62
             897.64,101.62 897.64,81.00 897.64,81.00
             897.64,81.00 881.88,81.00 881.88,81.00
             881.88,81.00 881.88,75.00 881.88,75.00
             881.88,75.00 897.64,75.00 897.64,75.00
             897.64,75.00 897.64,66.00 897.64,66.00
             897.64,66.00 886.00,66.00 886.00,66.00
             886.00,66.00 886.00,61.58 886.00,61.58
             884.59,62.98 882.39,64.78 879.39,67.00
             879.39,67.00 874.41,62.50 874.41,62.50
             886.19,54.09 894.32,44.59 898.81,34.00
             898.81,34.00 904.92,35.73 904.92,35.73
             904.92,35.73 904.36,37.00 904.36,37.00
             907.27,46.59 915.27,55.01 928.36,62.25 Z
           M 914.58,60.00
           C 908.27,54.73 903.71,49.28 900.88,43.64
             897.44,49.41 893.00,54.87 887.58,60.00
             887.58,60.00 914.58,60.00 914.58,60.00 Z
           M 881.06,44.94
           C 881.06,45.47 880.11,48.02 878.20,52.59
             876.30,57.17 874.66,60.79 873.31,63.45
             878.23,68.35 880.69,73.42 880.69,78.66
             880.69,85.55 877.09,89.00 869.91,89.00
             869.23,89.00 868.29,88.95 867.08,88.84
             867.08,88.84 864.84,82.00 864.84,82.00
             868.74,82.67 871.35,83.00 872.67,83.00
             873.94,83.00 874.58,81.77 874.58,79.31
             874.58,74.59 871.64,69.67 865.78,64.53
             869.38,57.57 872.25,51.06 874.41,45.00
             874.41,45.00 864.52,45.00 864.52,45.00
             864.52,45.00 864.52,110.00 864.52,110.00
             864.52,110.00 858.20,110.00 858.20,110.00
             858.20,110.00 858.20,39.00 858.20,39.00
             858.20,39.00 881.06,39.00 881.06,39.00
             881.06,39.00 881.06,44.94 881.06,44.94 Z
           M 927.95,99.42
           C 927.95,99.42 922.72,103.00 922.72,103.00
             918.63,95.67 913.62,89.99 907.69,85.97
             907.69,85.97 912.19,82.00 912.19,82.00
             918.00,86.07 923.25,91.88 927.95,99.42 Z
           M 893.66,86.81
           C 889.93,92.87 884.50,98.26 877.38,103.00
             877.38,103.00 873.08,98.25 873.08,98.25
             879.72,94.28 885.03,89.20 889.00,83.00
             889.00,83.00 893.66,86.81 893.66,86.81 Z
           M 964.12,83.03
           C 961.16,88.26 958.63,95.59 956.55,105.00
             956.55,105.00 950.42,105.00 950.42,105.00
             948.18,100.79 946.46,95.42 945.25,88.89
             944.05,82.36 943.45,76.51 943.45,71.33
             943.45,61.60 944.83,51.16 947.59,40.00
             947.59,40.00 955.73,41.94 955.73,41.94
             952.52,52.76 950.91,62.54 950.91,71.28
             950.91,79.06 951.54,85.48 952.81,90.55
             952.81,90.55 952.97,90.55 952.97,90.55
             953.84,87.46 955.21,83.95 957.08,80.00
             957.08,80.00 964.12,83.03 964.12,83.03 Z
           M 1005.88,63.00
           C 1001.57,64.01 997.64,64.76 994.08,65.25
             994.13,66.80 994.16,67.93 994.16,68.64
             994.16,74.02 993.89,78.84 993.36,83.09
             992.84,87.36 991.71,91.68 989.98,96.08
             988.25,100.48 985.69,104.78 982.28,109.00
             982.28,109.00 974.66,104.02 974.66,104.02
             978.08,100.89 980.66,97.48 982.38,93.78
             984.09,90.07 985.23,86.05 985.78,81.70
             986.33,77.36 986.61,71.90 986.61,65.31
             980.29,65.77 975.77,66.00 973.08,66.00
             968.50,66.00 964.71,65.93 961.69,65.80
             961.69,65.80 961.53,57.00 961.53,57.00
             964.80,57.67 968.97,58.00 974.05,58.00
             977.80,58.00 981.94,57.81 986.45,57.44
             986.27,52.62 985.69,47.40 984.72,41.77
             984.72,41.77 992.50,41.00 992.50,41.00
             993.14,46.97 993.56,52.72 993.75,58.25
             996.75,57.76 1000.48,56.68 1004.94,55.00
             1004.94,55.00 1005.88,63.00 1005.88,63.00 Z
           M 1052.50,67.00
           C 1054.12,67.00 1055.49,67.59 1056.61,68.77
             1057.73,69.93 1058.30,71.34 1058.30,72.98
             1058.30,74.65 1057.73,76.07 1056.61,77.25
             1055.49,78.42 1054.12,79.00 1052.50,79.00
             1050.88,79.00 1049.50,78.42 1048.38,77.25
             1047.26,76.07 1046.70,74.65 1046.70,72.98
             1046.70,71.34 1047.26,69.93 1048.38,68.77
             1049.50,67.59 1050.88,67.00 1052.50,67.00 Z
           M 1170.34,55.00
           C 1170.34,55.00 1151.09,55.00 1151.09,55.00
             1151.09,55.00 1151.09,66.00 1151.09,66.00
             1151.09,66.00 1166.69,66.00 1166.69,66.00
             1166.69,66.00 1166.69,72.00 1166.69,72.00
             1166.69,72.00 1129.08,72.00 1129.08,72.00
             1129.08,72.00 1129.08,66.00 1129.08,66.00
             1129.08,66.00 1144.53,66.00 1144.53,66.00
             1144.53,66.00 1144.53,55.00 1144.53,55.00
             1144.53,55.00 1125.67,55.00 1125.67,55.00
             1125.67,55.00 1125.67,49.00 1125.67,49.00
             1125.67,49.00 1144.53,49.00 1144.53,49.00
             1144.53,49.00 1144.53,35.00 1144.53,35.00
             1144.53,35.00 1151.09,35.00 1151.09,35.00
             1151.09,35.00 1151.09,49.00 1151.09,49.00
             1151.09,49.00 1170.34,49.00 1170.34,49.00
             1170.34,49.00 1170.34,55.00 1170.34,55.00 Z
           M 1128.92,84.84
           C 1128.92,84.84 1122.80,87.00 1122.80,87.00
             1122.52,85.80 1122.22,84.14 1121.88,82.00
             1121.88,82.00 1115.59,82.00 1115.59,82.00
             1115.59,82.00 1115.59,111.00 1115.59,111.00
             1115.59,111.00 1109.27,111.00 1109.27,111.00
             1109.27,111.00 1109.27,82.00 1109.27,82.00
             1109.27,82.00 1097.47,82.00 1097.47,82.00
             1097.47,82.00 1096.73,76.00 1096.73,76.00
             1096.73,76.00 1100.95,76.00 1100.95,76.00
             1104.41,71.53 1107.02,67.96 1108.78,65.28
             1105.75,62.68 1101.87,59.84 1097.14,56.75
             1097.14,56.75 1100.80,52.00 1100.80,52.00
             1100.80,52.00 1102.45,53.30 1102.45,53.30
             1106.47,47.12 1109.59,41.02 1111.81,35.00
             1111.81,35.00 1117.73,37.80 1117.73,37.80
             1114.43,44.98 1111.02,51.12 1107.52,56.20
             1109.80,57.63 1111.47,58.84 1112.50,59.81
             1114.34,57.21 1116.80,52.94 1119.89,47.00
             1119.89,47.00 1125.52,50.00 1125.52,50.00
             1120.68,59.34 1114.90,68.00 1108.17,76.00
             1108.17,76.00 1119.39,76.00 1119.39,76.00
             1118.93,74.39 1117.88,72.07 1116.23,69.06
             1116.23,69.06 1121.95,67.00 1121.95,67.00
             1124.87,71.71 1127.19,77.66 1128.92,84.84 Z
           M 1164.38,111.00
           C 1164.38,111.00 1158.06,111.00 1158.06,111.00
             1158.06,111.00 1158.06,105.00 1158.06,105.00
             1158.06,105.00 1137.72,105.00 1137.72,105.00
             1137.72,105.00 1137.72,111.00 1137.72,111.00
             1137.72,111.00 1131.44,111.00 1131.44,111.00
             1131.44,111.00 1131.44,81.00 1131.44,81.00
             1131.44,81.00 1164.38,81.00 1164.38,81.00
             1164.38,81.00 1164.38,111.00 1164.38,111.00 Z
           M 1158.06,99.00
           C 1158.06,99.00 1158.06,87.00 1158.06,87.00
             1158.06,87.00 1137.72,87.00 1137.72,87.00
             1137.72,87.00 1137.72,99.00 1137.72,99.00
             1137.72,99.00 1158.06,99.00 1158.06,99.00 Z
           M 1106.19,86.12
           C 1105.49,94.03 1103.69,101.32 1100.80,108.00
             1100.80,108.00 1094.92,105.53 1094.92,105.53
             1097.73,99.61 1099.50,92.76 1100.23,85.00
             1100.23,85.00 1106.19,86.12 1106.19,86.12 Z
           M 1128.59,104.58
           C 1128.59,104.58 1122.64,106.00 1122.64,106.00
             1121.66,98.66 1120.21,92.74 1118.30,88.25
             1118.30,88.25 1124.30,87.00 1124.30,87.00
             1126.35,91.75 1127.78,97.61 1128.59,104.58 Z
           M 1249.44,46.58
           C 1249.44,46.58 1243.72,49.00 1243.72,49.00
             1242.70,44.25 1241.38,40.41 1239.75,37.47
             1239.75,37.47 1245.78,35.00 1245.78,35.00
             1247.32,38.14 1248.54,42.00 1249.44,46.58 Z
           M 1240.23,50.61
           C 1240.23,50.61 1234.52,53.00 1234.52,53.00
             1233.49,48.26 1232.16,44.42 1230.52,41.48
             1230.52,41.48 1236.59,39.00 1236.59,39.00
             1238.10,42.15 1239.32,46.02 1240.23,50.61 Z
           M 1248.02,74.25
           C 1248.02,74.25 1242.39,79.00 1242.39,79.00
             1235.98,73.47 1232.22,69.70 1231.11,67.70
             1231.11,67.70 1230.95,67.86 1230.95,67.86
             1231.22,71.12 1231.36,73.21 1231.36,74.14
             1231.36,84.02 1228.98,91.80 1224.23,97.48
             1219.49,103.16 1213.10,106.00 1205.05,106.00
             1198.30,106.00 1192.70,104.06 1188.27,100.17
             1183.84,96.29 1181.62,91.12 1181.62,84.67
             1181.62,74.59 1187.24,64.18 1198.48,53.44
             1190.48,54.34 1184.97,54.87 1181.95,55.00
             1181.95,55.00 1180.38,47.00 1180.38,47.00
             1185.94,47.00 1190.85,46.77 1195.12,46.30
             1199.39,45.83 1204.11,45.06 1209.28,44.00
             1209.28,44.00 1211.27,51.00 1211.27,51.00
             1204.37,56.42 1198.95,62.23 1195.00,68.44
             1191.06,74.64 1189.09,80.12 1189.09,84.88
             1189.09,89.15 1190.76,92.57 1194.09,95.14
             1197.44,97.71 1201.28,99.00 1205.62,99.00
             1211.49,99.00 1215.97,96.70 1219.06,92.09
             1222.16,87.48 1223.70,81.05 1223.70,72.81
             1223.70,64.06 1221.85,54.71 1218.14,44.75
             1218.14,44.75 1225.44,43.00 1225.44,43.00
             1231.84,56.21 1239.37,66.62 1248.02,74.25 Z
           M 1316.50,67.00
           C 1318.12,67.00 1319.49,67.59 1320.61,68.77
             1321.73,69.93 1322.30,71.34 1322.30,72.98
             1322.30,74.65 1321.73,76.07 1320.61,77.25
             1319.49,78.42 1318.12,79.00 1316.50,79.00
             1314.88,79.00 1313.50,78.42 1312.38,77.25
             1311.26,76.07 1310.70,74.65 1310.70,72.98
             1310.70,71.34 1311.26,69.93 1312.38,68.77
             1313.50,67.59 1314.88,67.00 1316.50,67.00 Z
           M 1435.36,67.25
           C 1435.36,67.25 1431.17,72.00 1431.17,72.00
             1428.82,71.11 1425.44,69.27 1421.03,66.50
             1416.63,63.72 1413.11,61.12 1410.47,58.70
             1407.82,56.28 1403.50,51.64 1397.50,44.80
             1389.88,53.87 1378.66,63.27 1363.83,73.00
             1363.83,73.00 1359.33,68.25 1359.33,68.25
             1376.37,57.23 1388.98,45.81 1397.17,34.00
             1397.17,34.00 1403.30,38.12 1403.30,38.12
             1403.30,38.12 1400.75,40.66 1400.75,40.66
             1405.45,46.46 1411.30,51.98 1418.30,57.23
             1425.30,62.48 1430.98,65.82 1435.36,67.25 Z
           M 1416.83,71.00
           C 1416.83,71.00 1377.23,71.00 1377.23,71.00
             1377.23,71.00 1377.23,65.00 1377.23,65.00
             1377.23,65.00 1416.83,65.00 1416.83,65.00
             1416.83,65.00 1416.83,71.00 1416.83,71.00 Z
           M 1421.66,111.00
           C 1421.66,111.00 1415.09,111.00 1415.09,111.00
             1415.09,111.00 1415.09,105.00 1415.09,105.00
             1415.09,105.00 1379.83,105.00 1379.83,105.00
             1379.83,105.00 1379.83,111.00 1379.83,111.00
             1379.83,111.00 1373.27,111.00 1373.27,111.00
             1373.27,111.00 1373.27,80.00 1373.27,80.00
             1373.27,80.00 1421.66,80.00 1421.66,80.00
             1421.66,80.00 1421.66,111.00 1421.66,111.00 Z
           M 1415.09,99.00
           C 1415.09,99.00 1415.09,86.00 1415.09,86.00
             1415.09,86.00 1379.83,86.00 1379.83,86.00
             1379.83,86.00 1379.83,99.00 1379.83,99.00
             1379.83,99.00 1415.09,99.00 1415.09,99.00 Z
           M 1517.33,77.25
           C 1517.33,77.25 1513.59,82.00 1513.59,82.00
             1505.00,78.91 1497.53,74.72 1491.19,69.44
             1486.86,73.11 1479.49,77.29 1469.06,82.00
             1469.06,82.00 1465.12,77.25 1465.12,77.25
             1472.61,74.70 1479.87,70.68 1486.89,65.19
             1486.02,64.07 1484.08,60.93 1481.05,55.75
             1478.32,60.20 1475.83,63.62 1473.59,66.00
             1473.59,66.00 1468.20,62.44 1468.20,62.44
             1474.77,55.82 1479.38,46.68 1482.06,35.00
             1482.06,35.00 1488.14,36.81 1488.14,36.81
             1488.04,37.74 1487.43,40.14 1486.33,44.00
             1486.33,44.00 1508.12,44.00 1508.12,44.00
             1505.97,52.19 1501.82,59.30 1495.69,65.34
             1501.63,70.62 1508.85,74.59 1517.33,77.25 Z
           M 1499.50,50.00
           C 1499.50,50.00 1484.91,50.00 1484.91,50.00
             1486.66,53.97 1488.89,57.68 1491.62,61.12
             1494.55,57.88 1497.18,54.17 1499.50,50.00 Z
           M 1473.11,72.34
           C 1473.11,72.34 1467.97,76.00 1467.97,76.00
             1465.66,71.84 1463.55,69.09 1461.64,67.75
             1461.64,67.75 1461.64,110.00 1461.64,110.00
             1461.64,110.00 1455.36,110.00 1455.36,110.00
             1455.36,110.00 1455.36,78.47 1455.36,78.47
             1452.36,83.84 1449.17,88.36 1445.80,92.00
             1445.80,92.00 1440.64,88.03 1440.64,88.03
             1448.50,79.02 1453.18,69.01 1454.67,58.00
             1454.67,58.00 1443.64,58.00 1443.64,58.00
             1443.64,58.00 1443.64,52.00 1443.64,52.00
             1443.64,52.00 1455.08,52.00 1455.08,52.00
             1455.08,52.00 1455.08,36.00 1455.08,36.00
             1455.08,36.00 1461.64,36.00 1461.64,36.00
             1461.64,36.00 1461.64,52.00 1461.64,52.00
             1461.64,52.00 1470.03,52.00 1470.03,52.00
             1470.03,52.00 1470.03,58.00 1470.03,58.00
             1470.03,58.00 1461.64,58.00 1461.64,58.00
             1461.64,58.00 1461.64,62.53 1461.64,62.53
             1461.64,62.53 1462.48,62.00 1462.48,62.00
             1466.84,64.69 1470.38,68.14 1473.11,72.34 Z
           M 1506.39,110.00
           C 1506.39,110.00 1500.06,110.00 1500.06,110.00
             1500.06,110.00 1500.06,105.00 1500.06,105.00
             1500.06,105.00 1482.23,105.00 1482.23,105.00
             1482.23,105.00 1482.23,110.00 1482.23,110.00
             1482.23,110.00 1475.95,110.00 1475.95,110.00
             1475.95,110.00 1475.95,79.00 1475.95,79.00
             1475.95,79.00 1506.39,79.00 1506.39,79.00
             1506.39,79.00 1506.39,110.00 1506.39,110.00 Z
           M 1500.06,99.00
           C 1500.06,99.00 1500.06,85.00 1500.06,85.00
             1500.06,85.00 1482.23,85.00 1482.23,85.00
             1482.23,85.00 1482.23,99.00 1482.23,99.00
             1482.23,99.00 1500.06,99.00 1500.06,99.00 Z
           M 1562.50,54.00
           C 1560.47,70.03 1557.77,82.21 1554.41,90.53
             1551.05,98.84 1547.27,103.00 1543.05,103.00
             1539.27,103.00 1535.74,100.34 1532.47,95.02
             1529.20,89.70 1527.56,84.06 1527.56,78.11
             1527.56,71.52 1529.02,65.90 1531.92,61.27
             1534.83,56.62 1538.92,52.92 1544.20,50.16
             1549.48,47.39 1555.43,46.00 1562.05,46.00
             1570.27,46.00 1577.18,48.59 1582.78,53.78
             1588.38,58.96 1591.19,65.96 1591.19,74.78
             1591.19,82.04 1589.15,88.52 1585.08,94.22
             1581.02,99.91 1575.18,104.50 1567.56,108.00
             1567.56,108.00 1562.91,101.25 1562.91,101.25
             1569.60,98.96 1574.79,95.37 1578.47,90.48
             1582.14,85.60 1583.98,80.23 1583.98,74.38
             1583.98,68.64 1581.96,63.88 1577.92,60.09
             1573.88,56.30 1568.74,54.27 1562.50,54.00 Z
           M 1555.00,54.78
           C 1549.46,55.84 1544.80,58.50 1541.02,62.73
             1537.23,66.98 1535.34,71.96 1535.34,77.70
             1535.34,81.42 1536.25,85.23 1538.06,89.14
             1539.88,93.05 1541.51,95.00 1542.97,95.00
             1544.48,95.00 1546.55,90.80 1549.20,82.39
             1551.85,73.98 1553.78,64.78 1555.00,54.78 Z
           M 1674.02,88.00
           C 1674.02,88.00 1658.09,88.00 1658.09,88.00
             1658.09,88.00 1658.09,110.00 1658.09,110.00
             1658.09,110.00 1651.81,110.00 1651.81,110.00
             1651.81,110.00 1651.81,88.00 1651.81,88.00
             1651.81,88.00 1635.44,88.00 1635.44,88.00
             1635.44,88.00 1635.44,83.48 1635.44,83.48
             1635.44,83.48 1631.47,87.00 1631.47,87.00
             1629.98,83.78 1627.62,80.75 1624.41,77.89
             1624.41,77.89 1624.41,110.00 1624.41,110.00
             1624.41,110.00 1618.09,110.00 1618.09,110.00
             1618.09,110.00 1618.09,76.75 1618.09,76.75
             1612.66,81.36 1609.09,84.11 1607.39,85.00
             1607.39,85.00 1603.58,80.25 1603.58,80.25
             1614.77,73.80 1621.98,66.39 1625.22,58.00
             1625.22,58.00 1606.22,58.00 1606.22,58.00
             1606.22,58.00 1606.22,52.00 1606.22,52.00
             1606.22,52.00 1618.50,52.00 1618.50,52.00
             1618.50,52.00 1618.50,35.00 1618.50,35.00
             1618.50,35.00 1624.81,35.00 1624.81,35.00
             1624.81,35.00 1624.81,52.00 1624.81,52.00
             1624.81,52.00 1633.12,52.00 1633.12,52.00
             1631.69,59.70 1628.78,65.98 1624.41,70.84
             1624.41,70.84 1624.41,73.16 1624.41,73.16
             1624.41,73.16 1626.31,71.75 1626.31,71.75
             1630.02,74.46 1633.06,77.64 1635.44,81.30
             1635.44,81.30 1635.44,49.00 1635.44,49.00
             1635.44,49.00 1651.81,49.00 1651.81,49.00
             1651.81,49.00 1651.81,35.00 1651.81,35.00
             1651.81,35.00 1658.09,35.00 1658.09,35.00
             1658.09,35.00 1658.09,49.00 1658.09,49.00
             1658.09,49.00 1674.02,49.00 1674.02,49.00
             1674.02,49.00 1674.02,88.00 1674.02,88.00 Z
           M 1667.73,65.00
           C 1667.73,65.00 1667.73,55.00 1667.73,55.00
             1667.73,55.00 1658.09,55.00 1658.09,55.00
             1658.09,55.00 1658.09,65.00 1658.09,65.00
             1658.09,65.00 1667.73,65.00 1667.73,65.00 Z
           M 1651.81,65.00
           C 1651.81,65.00 1651.81,55.00 1651.81,55.00
             1651.81,55.00 1641.75,55.00 1641.75,55.00
             1641.75,55.00 1641.75,65.00 1641.75,65.00
             1641.75,65.00 1651.81,65.00 1651.81,65.00 Z
           M 1667.73,82.00
           C 1667.73,82.00 1667.73,71.00 1667.73,71.00
             1667.73,71.00 1658.09,71.00 1658.09,71.00
             1658.09,71.00 1658.09,82.00 1658.09,82.00
             1658.09,82.00 1667.73,82.00 1667.73,82.00 Z
           M 1651.81,82.00
           C 1651.81,82.00 1651.81,71.00 1651.81,71.00
             1651.81,71.00 1641.75,71.00 1641.75,71.00
             1641.75,71.00 1641.75,82.00 1641.75,82.00
             1641.75,82.00 1651.81,82.00 1651.81,82.00 Z
           M 1757.05,70.00
           C 1757.05,70.00 1710.88,70.00 1710.88,70.00
             1711.79,71.12 1712.72,72.73 1713.67,74.80
             1713.67,74.80 1708.12,78.25 1708.12,78.25
             1707.58,76.34 1706.04,73.89 1703.50,70.89
             1703.50,70.89 1703.50,110.00 1703.50,110.00
             1703.50,110.00 1697.19,110.00 1697.19,110.00
             1697.19,110.00 1697.19,76.00 1697.19,76.00
             1697.19,76.00 1697.03,76.00 1697.03,76.00
             1695.24,80.84 1691.99,85.50 1687.30,90.00
             1687.30,90.00 1682.92,85.25 1682.92,85.25
             1690.18,78.96 1694.85,69.88 1696.94,58.00
             1696.94,58.00 1686.56,58.00 1686.56,58.00
             1686.56,58.00 1686.56,52.00 1686.56,52.00
             1686.56,52.00 1697.19,52.00 1697.19,52.00
             1697.19,52.00 1697.19,36.00 1697.19,36.00
             1697.19,36.00 1703.50,36.00 1703.50,36.00
             1703.50,36.00 1703.50,52.00 1703.50,52.00
             1703.50,52.00 1712.38,52.00 1712.38,52.00
             1712.38,52.00 1712.38,58.00 1712.38,58.00
             1712.38,58.00 1703.50,58.00 1703.50,58.00
             1703.50,58.00 1703.50,64.64 1703.50,64.64
             1703.50,64.64 1704.47,63.75 1704.47,63.75
             1707.41,66.73 1709.39,68.90 1710.39,70.25
             1710.39,70.25 1710.39,64.00 1710.39,64.00
             1710.39,64.00 1729.73,64.00 1729.73,64.00
             1729.73,64.00 1729.73,60.00 1729.73,60.00
             1729.73,60.00 1716.19,60.00 1716.19,60.00
             1716.19,60.00 1716.19,54.00 1716.19,54.00
             1716.19,54.00 1729.73,54.00 1729.73,54.00
             1729.73,54.00 1729.73,49.00 1729.73,49.00
             1729.73,49.00 1710.03,49.00 1710.03,49.00
             1710.03,49.00 1710.03,43.00 1710.03,43.00
             1710.03,43.00 1722.06,43.00 1722.06,43.00
             1720.25,40.75 1717.88,39.22 1714.94,38.41
             1714.94,38.41 1721.83,35.00 1721.83,35.00
             1724.83,37.36 1727.18,40.02 1728.88,43.00
             1728.88,43.00 1736.53,43.00 1736.53,43.00
             1738.75,41.52 1741.07,38.86 1743.50,35.00
             1743.50,35.00 1749.22,37.97 1749.22,37.97
             1747.81,39.94 1746.31,41.62 1744.72,43.00
             1744.72,43.00 1755.70,43.00 1755.70,43.00
             1755.70,43.00 1755.70,49.00 1755.70,49.00
             1755.70,49.00 1736.02,49.00 1736.02,49.00
             1736.02,49.00 1736.02,54.00 1736.02,54.00
             1736.02,54.00 1752.06,54.00 1752.06,54.00
             1752.06,54.00 1752.06,60.00 1752.06,60.00
             1752.06,60.00 1736.02,60.00 1736.02,60.00
             1736.02,60.00 1736.02,64.00 1736.02,64.00
             1736.02,64.00 1757.05,64.00 1757.05,64.00
             1757.05,64.00 1757.05,70.00 1757.05,70.00 Z
           M 1760.45,102.38
           C 1760.45,102.38 1755.55,107.00 1755.55,107.00
             1745.73,103.02 1739.37,98.31 1736.45,92.88
             1736.45,92.88 1736.38,92.88 1736.38,92.88
             1736.38,92.88 1736.38,103.28 1736.38,103.28
             1736.38,104.98 1735.77,106.47 1734.56,107.75
             1733.36,109.03 1731.71,109.71 1729.61,109.80
             1729.61,109.80 1722.22,110.00 1722.22,110.00
             1722.22,110.00 1720.16,104.00 1720.16,104.00
             1720.16,104.00 1725.80,104.28 1725.80,104.28
             1728.63,104.40 1730.05,103.58 1730.05,101.83
             1730.05,101.83 1730.05,71.00 1730.05,71.00
             1730.05,71.00 1736.45,71.00 1736.45,71.00
             1736.45,71.00 1736.45,71.72 1736.45,71.72
             1736.45,71.72 1736.50,73.39 1736.50,73.39
             1736.50,73.39 1736.50,80.22 1736.50,80.22
             1736.47,80.76 1736.68,81.52 1737.14,82.48
             1737.63,83.57 1738.01,84.32 1738.28,84.75
             1741.47,82.09 1744.67,78.51 1747.89,74.00
             1747.89,74.00 1752.95,77.48 1752.95,77.48
             1748.20,83.70 1744.42,87.63 1741.61,89.30
             1745.55,94.20 1751.84,98.55 1760.45,102.38 Z
           M 1726.97,83.25
           C 1726.97,83.25 1722.84,88.00 1722.84,88.00
             1716.28,84.75 1711.85,83.09 1709.55,83.00
             1709.55,83.00 1713.52,78.00 1713.52,78.00
             1718.86,78.87 1723.34,80.62 1726.97,83.25 Z
           M 1728.55,93.75
           C 1724.04,97.62 1720.64,100.28 1718.36,101.75
             1716.08,103.21 1712.98,104.29 1709.06,105.00
             1709.06,105.00 1705.41,99.25 1705.41,99.25
             1708.03,99.01 1710.61,98.37 1713.16,97.31
             1715.70,96.26 1719.56,93.49 1724.75,89.00
             1724.75,89.00 1728.55,93.75 1728.55,93.75 Z
           M 642.06,197.25
           C 642.06,197.25 638.53,202.00 638.53,202.00
             635.52,199.49 632.81,197.39 630.41,195.70
             628.16,200.70 625.35,205.12 621.97,209.00
             621.97,209.00 617.19,205.58 617.19,205.58
             620.74,202.09 623.59,197.84 625.75,192.83
             621.94,190.42 618.61,188.58 615.77,187.30
             613.16,194.23 610.85,198.74 608.84,200.84
             606.83,202.95 604.70,204.00 602.44,204.00
             599.96,204.00 597.95,202.93 596.42,200.78
             594.90,198.62 594.14,196.13 594.14,193.30
             594.14,189.16 595.44,185.75 598.05,183.05
             600.65,180.35 603.99,179.00 608.08,179.00
             609.71,179.00 611.12,179.21 612.31,179.64
             613.99,174.05 615.25,168.99 616.09,164.47
             610.99,164.82 606.10,165.00 601.44,165.00
             601.44,165.00 600.59,158.88 600.59,158.88
             601.88,158.96 604.18,159.00 607.47,159.00
             611.62,159.00 616.00,158.67 620.61,158.00
             620.61,158.00 622.61,159.78 622.61,159.78
             621.54,166.15 619.86,173.34 617.58,181.34
             621.19,183.12 624.70,185.08 628.11,187.23
             629.64,183.26 630.77,179.51 631.50,176.00
             631.50,176.00 636.86,177.88 636.86,177.88
             635.48,182.77 634.09,186.92 632.69,190.33
             636.16,192.58 639.28,194.89 642.06,197.25 Z
           M 610.31,185.36
           C 609.45,185.12 608.62,185.00 607.83,185.00
             605.52,185.00 603.59,185.76 602.02,187.28
             600.44,188.79 599.66,190.73 599.66,193.09
             599.66,194.46 599.92,195.62 600.45,196.58
             600.99,197.53 601.68,198.00 602.50,198.00
             603.55,198.00 604.79,196.84 606.20,194.52
             607.63,192.20 609.00,189.14 610.31,185.36 Z
           M 796.78,166.30
           C 799.71,165.43 802.21,165.00 804.28,165.00
             807.76,165.00 810.58,166.12 812.75,168.34
             814.91,170.56 816.00,173.36 816.00,176.72
             816.00,180.59 814.39,183.80 811.17,186.34
             807.95,188.88 803.48,190.43 797.75,191.00
             797.75,191.00 797.33,185.00 797.33,185.00
             800.73,185.00 803.75,184.18 806.39,182.53
             809.02,180.88 810.34,178.77 810.34,176.20
             810.34,174.55 809.76,173.10 808.59,171.86
             807.44,170.62 806.00,170.00 804.30,170.00
             802.66,170.00 801.07,170.27 799.52,170.80
             800.55,172.59 801.47,174.32 802.30,175.98
             802.30,175.98 797.20,179.00 797.20,179.00
             796.30,176.45 795.30,174.33 794.23,172.64
             791.35,173.70 788.08,175.12 784.44,176.91
             789.48,187.01 793.44,196.64 796.33,205.80
             796.33,205.80 790.52,208.00 790.52,208.00
             788.90,200.82 785.24,191.31 779.53,179.45
             776.74,181.00 773.76,182.84 770.59,185.00
             770.59,185.00 767.14,180.25 767.14,180.25
             768.11,179.61 771.37,177.81 776.92,174.86
             774.12,169.00 771.55,164.56 769.23,161.55
             769.23,161.55 774.78,159.00 774.78,159.00
             777.78,164.24 780.15,168.72 781.89,172.44
             785.72,170.65 788.97,169.27 791.64,168.30
             790.39,165.70 788.48,162.93 785.92,159.97
             785.92,159.97 791.30,157.00 791.30,157.00
             791.30,157.00 796.78,166.30 796.78,166.30 Z
           M 990.31,199.25
           C 990.31,199.25 986.53,204.00 986.53,204.00
             979.71,198.97 973.89,195.89 969.09,194.75
             969.09,198.55 968.05,201.71 965.97,204.23
             963.89,206.74 960.95,208.00 957.12,208.00
             953.68,208.00 950.80,207.03 948.50,205.09
             946.20,203.15 945.05,200.85 945.05,198.20
             945.05,195.18 946.41,192.73 949.14,190.84
             951.88,188.95 955.29,188.00 959.36,188.00
             960.90,188.00 962.24,188.18 963.39,188.55
             963.39,188.55 963.39,181.61 963.39,181.61
             956.82,181.61 950.33,181.41 943.94,181.00
             943.94,181.00 943.94,175.00 943.94,175.00
             950.10,175.43 956.59,175.64 963.39,175.64
             963.39,175.64 963.39,170.00 963.39,170.00
             955.83,170.00 948.97,170.42 942.81,171.25
             942.81,171.25 942.81,165.25 942.81,165.25
             948.97,164.42 955.83,164.00 963.39,164.00
             963.39,164.00 963.39,156.00 963.39,156.00
             963.39,156.00 968.84,156.00 968.84,156.00
             968.84,156.00 968.84,164.00 968.84,164.00
             976.23,164.00 982.78,164.42 988.50,165.25
             988.50,165.25 988.50,171.25 988.50,171.25
             982.95,170.42 976.39,170.00 968.84,170.00
             968.84,170.00 968.84,176.00 968.84,176.00
             975.30,176.00 981.57,175.79 987.64,175.36
             987.64,175.36 987.64,181.39 987.64,181.39
             981.61,181.80 975.34,182.00 968.84,182.00
             968.84,182.00 968.84,188.75 968.84,188.75
             976.11,190.55 983.27,194.05 990.31,199.25 Z
           M 963.34,194.11
           C 961.88,194.04 960.68,194.00 959.73,194.00
             957.23,194.00 955.17,194.37 953.55,195.11
             951.92,195.84 951.11,196.88 951.11,198.23
             951.11,199.30 951.66,200.20 952.77,200.92
             953.88,201.64 955.30,202.00 957.02,202.00
             959.17,202.00 960.77,201.49 961.80,200.47
             962.83,199.44 963.34,197.32 963.34,194.11 Z
           M 1165.48,163.20
           C 1165.48,163.20 1161.19,165.00 1161.19,165.00
             1160.44,161.64 1159.45,158.93 1158.22,156.88
             1158.22,156.88 1162.77,155.00 1162.77,155.00
             1163.89,157.21 1164.80,159.95 1165.48,163.20 Z
           M 1160.05,205.48
           C 1154.62,205.83 1149.34,206.00 1144.20,206.00
             1135.95,206.00 1129.71,204.90 1125.47,202.69
             1121.23,200.47 1119.11,197.23 1119.11,192.97
             1119.11,190.14 1120.07,187.49 1121.98,185.03
             1123.90,182.56 1126.58,180.52 1130.02,178.91
             1128.38,172.73 1127.18,165.71 1126.41,157.84
             1126.41,157.84 1132.67,157.00 1132.67,157.00
             1132.82,164.11 1133.69,170.60 1135.28,176.48
             1142.19,173.60 1148.31,171.44 1153.66,170.00
             1153.66,170.00 1155.02,176.00 1155.02,176.00
             1144.24,178.51 1136.50,181.09 1131.80,183.72
             1127.10,186.34 1124.75,189.31 1124.75,192.61
             1124.75,194.88 1126.34,196.68 1129.52,198.02
             1132.69,199.34 1137.30,200.00 1143.36,200.00
             1148.69,200.00 1153.92,199.67 1159.05,199.00
             1159.05,199.00 1160.05,205.48 1160.05,205.48 Z
           M 1158.59,166.20
           C 1158.59,166.20 1154.31,168.00 1154.31,168.00
             1153.55,164.23 1152.57,161.18 1151.36,158.84
             1151.36,158.84 1155.86,157.00 1155.86,157.00
             1157.02,159.48 1157.93,162.55 1158.59,166.20 Z
           M 709.47,339.00
           C 709.47,339.00 691.58,339.00 691.58,339.00
             691.58,339.00 688.92,370.00 688.92,370.00
             688.92,370.00 702.66,370.00 702.66,370.00
             702.66,370.00 702.66,384.00 702.66,384.00
             702.66,384.00 687.12,384.00 687.12,384.00
             685.29,401.33 677.08,410.00 662.50,410.00
             655.99,410.00 649.80,409.58 643.92,408.75
             643.92,408.75 640.61,393.75 640.61,393.75
             648.38,395.25 655.36,396.00 661.55,396.00
             664.44,396.00 666.66,395.28 668.20,393.84
             669.75,392.41 670.82,389.12 671.39,384.00
             671.39,384.00 599.88,384.00 599.88,384.00
             599.88,384.00 598.27,392.00 598.27,392.00
             598.27,392.00 583.20,390.39 583.20,390.39
             583.20,390.39 591.73,339.00 591.73,339.00
             591.73,339.00 577.33,339.00 577.33,339.00
             577.33,339.00 577.33,325.00 577.33,325.00
             577.33,325.00 593.06,325.00 593.06,325.00
             593.06,325.00 598.08,289.06 598.08,289.06
             593.85,294.70 589.52,299.34 585.09,303.00
             585.09,303.00 571.36,295.33 571.36,295.33
             592.77,276.07 605.12,255.96 608.41,235.00
             608.41,235.00 623.75,240.41 623.75,240.41
             622.61,245.09 620.97,249.62 618.83,254.00
             618.83,254.00 705.97,254.00 705.97,254.00
             705.97,254.00 705.97,268.00 705.97,268.00
             705.97,268.00 612.28,268.00 612.28,268.00
             610.51,271.59 607.41,276.59 603.00,283.00
             603.00,283.00 695.64,283.00 695.64,283.00
             695.64,283.00 693.00,325.00 693.00,325.00
             693.00,325.00 709.47,325.00 709.47,325.00
             709.47,325.00 709.47,339.00 709.47,339.00 Z
           M 679.55,297.00
           C 679.55,297.00 653.78,297.00 653.78,297.00
             653.78,297.00 649.89,325.00 649.89,325.00
             649.89,325.00 677.08,325.00 677.08,325.00
             678.15,318.28 678.97,308.95 679.55,297.00 Z
           M 639.47,297.00
           C 639.47,297.00 612.67,297.00 612.67,297.00
             612.67,297.00 608.59,325.00 608.59,325.00
             608.59,325.00 635.59,325.00 635.59,325.00
             635.59,325.00 639.47,297.00 639.47,297.00 Z
           M 633.78,339.00
           C 633.78,339.00 606.22,339.00 606.22,339.00
             606.22,339.00 601.58,370.00 601.58,370.00
             601.58,370.00 629.72,370.00 629.72,370.00
             629.72,370.00 633.78,339.00 633.78,339.00 Z
           M 676.33,339.00
           C 676.33,339.00 648.19,339.00 648.19,339.00
             648.19,339.00 644.11,370.00 644.11,370.00
             644.11,370.00 673.58,370.00 673.58,370.00
             674.09,365.91 675.00,355.57 676.33,339.00 Z
           M 586.23,269.53
           C 586.23,269.53 575.25,279.00 575.25,279.00
             567.80,266.41 557.07,257.88 543.05,253.42
             543.05,253.42 553.84,243.00 553.84,243.00
             566.85,248.09 577.65,256.94 586.23,269.53 Z
           M 575.81,311.42
           C 575.81,311.42 564.36,321.00 564.36,321.00
             556.21,306.82 545.47,297.47 532.14,292.94
             532.14,292.94 543.61,283.00 543.61,283.00
             555.61,287.92 566.34,297.39 575.81,311.42 Z
           M 575.44,336.92
           C 570.32,364.90 561.32,387.59 548.44,405.00
             548.44,405.00 536.22,394.09 536.22,394.09
             548.98,378.11 557.32,357.41 561.23,332.00
             561.23,332.00 575.44,336.92 575.44,336.92 Z
           M 953.38,407.00
           C 953.38,407.00 938.70,407.00 938.70,407.00
             938.70,407.00 938.70,389.00 938.70,389.00
             938.70,389.00 827.48,389.00 827.48,389.00
             827.48,389.00 827.48,408.00 827.48,408.00
             827.48,408.00 812.62,408.00 812.62,408.00
             812.62,408.00 812.62,282.00 812.62,282.00
             812.62,282.00 827.30,282.00 827.30,282.00
             827.30,282.00 827.30,375.00 827.30,375.00
             827.30,375.00 875.98,375.00 875.98,375.00
             875.98,375.00 875.98,249.00 875.98,249.00
             875.98,249.00 890.77,249.00 890.77,249.00
             890.77,249.00 890.77,375.00 890.77,375.00
             890.77,375.00 938.52,375.00 938.52,375.00
             938.52,375.00 938.52,282.00 938.52,282.00
             938.52,282.00 953.38,282.00 953.38,282.00
             953.38,282.00 953.38,407.00 953.38,407.00 Z
           M 1228.27,269.00
           C 1228.27,269.00 1179.11,269.00 1179.11,269.00
             1177.91,273.44 1176.05,278.77 1173.52,285.00
             1173.52,285.00 1215.19,285.00 1215.19,285.00
             1215.19,285.00 1215.19,379.00 1215.19,379.00
             1215.19,379.00 1120.75,379.00 1120.75,379.00
             1120.75,379.00 1120.75,285.00 1120.75,285.00
             1120.75,285.00 1156.47,285.00 1156.47,285.00
             1158.80,280.70 1160.98,275.37 1163.00,269.00
             1163.00,269.00 1107.77,269.00 1107.77,269.00
             1107.77,269.00 1107.77,255.00 1107.77,255.00
             1107.77,255.00 1135.91,255.00 1135.91,255.00
             1131.80,250.47 1127.32,246.52 1122.45,243.14
             1122.45,243.14 1135.34,235.00 1135.34,235.00
             1145.07,243.72 1151.13,250.39 1153.53,255.00
             1153.53,255.00 1181.84,255.00 1181.84,255.00
             1187.14,248.42 1191.22,241.42 1194.06,234.00
             1194.06,234.00 1207.42,240.06 1207.42,240.06
             1204.33,245.99 1201.49,250.97 1198.91,255.00
             1198.91,255.00 1228.27,255.00 1228.27,255.00
             1228.27,255.00 1228.27,269.00 1228.27,269.00 Z
           M 1199.94,311.00
           C 1199.94,311.00 1199.94,299.00 1199.94,299.00
             1199.94,299.00 1135.53,299.00 1135.53,299.00
             1135.53,299.00 1135.53,311.00 1135.53,311.00
             1135.53,311.00 1199.94,311.00 1199.94,311.00 Z
           M 1199.94,338.00
           C 1199.94,338.00 1199.94,325.00 1199.94,325.00
             1199.94,325.00 1135.53,325.00 1135.53,325.00
             1135.53,325.00 1135.53,338.00 1135.53,338.00
             1135.53,338.00 1199.94,338.00 1199.94,338.00 Z
           M 1199.94,365.00
           C 1199.94,365.00 1199.94,352.00 1199.94,352.00
             1199.94,352.00 1135.53,352.00 1135.53,352.00
             1135.53,352.00 1135.53,365.00 1135.53,365.00
             1135.53,365.00 1199.94,365.00 1199.94,365.00 Z
           M 1101.33,274.66
           C 1101.33,274.66 1088.73,283.00 1088.73,283.00
             1081.79,268.32 1073.26,256.65 1063.16,247.97
             1063.16,247.97 1073.95,240.00 1073.95,240.00
             1084.63,248.81 1093.75,260.37 1101.33,274.66 Z
           M 1232.72,388.30
           C 1232.72,388.30 1226.84,404.00 1226.84,404.00
             1226.84,404.00 1147.94,404.00 1147.94,404.00
             1132.47,404.00 1120.93,402.14 1113.31,398.44
             1105.71,394.73 1099.38,389.84 1094.33,383.75
             1089.90,387.05 1080.14,395.47 1065.05,409.00
             1065.05,409.00 1053.97,397.25 1053.97,397.25
             1062.05,391.41 1073.07,382.57 1087.03,370.75
             1087.03,370.75 1087.03,315.00 1087.03,315.00
             1087.03,315.00 1060.78,315.00 1060.78,315.00
             1060.78,315.00 1060.78,301.00 1060.78,301.00
             1060.78,301.00 1101.70,301.00 1101.70,301.00
             1101.70,301.00 1101.70,370.56 1101.70,370.56
             1107.64,377.18 1113.51,381.88 1119.31,384.66
             1125.12,387.44 1131.23,389.03 1137.64,389.42
             1144.05,389.81 1155.45,390.00 1171.81,390.00
             1193.47,390.00 1213.77,389.43 1232.72,388.30 Z
           M 1485.34,359.00
           C 1485.34,359.00 1448.11,359.00 1448.11,359.00
             1448.11,359.00 1448.11,411.00 1448.11,411.00
             1448.11,411.00 1433.42,411.00 1433.42,411.00
             1433.42,411.00 1433.42,359.00 1433.42,359.00
             1433.42,359.00 1395.16,359.00 1395.16,359.00
             1395.16,359.00 1395.16,348.47 1395.16,348.47
             1395.16,348.47 1385.88,356.00 1385.88,356.00
             1382.39,349.00 1376.90,342.40 1369.39,336.19
             1369.39,336.19 1369.39,411.00 1369.39,411.00
             1369.39,411.00 1354.61,411.00 1354.61,411.00
             1354.61,411.00 1354.61,333.75 1354.61,333.75
             1341.92,344.50 1333.59,350.92 1329.61,353.00
             1329.61,353.00 1320.70,342.25 1320.70,342.25
             1346.85,326.82 1363.71,309.07 1371.28,289.00
             1371.28,289.00 1326.86,289.00 1326.86,289.00
             1326.86,289.00 1326.86,275.00 1326.86,275.00
             1326.86,275.00 1355.56,275.00 1355.56,275.00
             1355.56,275.00 1355.56,237.00 1355.56,237.00
             1355.56,237.00 1370.34,237.00 1370.34,237.00
             1370.34,237.00 1370.34,275.00 1370.34,275.00
             1370.34,275.00 1389.77,275.00 1389.77,275.00
             1386.42,293.22 1379.63,308.09 1369.39,319.62
             1369.39,319.62 1369.39,325.11 1369.39,325.11
             1369.39,325.11 1373.84,321.75 1373.84,321.75
             1382.50,327.89 1389.60,335.09 1395.16,343.36
             1395.16,343.36 1395.16,268.00 1395.16,268.00
             1395.16,268.00 1433.42,268.00 1433.42,268.00
             1433.42,268.00 1433.42,236.00 1433.42,236.00
             1433.42,236.00 1448.11,236.00 1448.11,236.00
             1448.11,236.00 1448.11,268.00 1448.11,268.00
             1448.11,268.00 1485.34,268.00 1485.34,268.00
             1485.34,268.00 1485.34,359.00 1485.34,359.00 Z
           M 1470.66,306.00
           C 1470.66,306.00 1470.66,282.00 1470.66,282.00
             1470.66,282.00 1448.11,282.00 1448.11,282.00
             1448.11,282.00 1448.11,306.00 1448.11,306.00
             1448.11,306.00 1470.66,306.00 1470.66,306.00 Z
           M 1433.42,306.00
           C 1433.42,306.00 1433.42,282.00 1433.42,282.00
             1433.42,282.00 1409.94,282.00 1409.94,282.00
             1409.94,282.00 1409.94,306.00 1409.94,306.00
             1409.94,306.00 1433.42,306.00 1433.42,306.00 Z
           M 1470.66,345.00
           C 1470.66,345.00 1470.66,320.00 1470.66,320.00
             1470.66,320.00 1448.11,320.00 1448.11,320.00
             1448.11,320.00 1448.11,345.00 1448.11,345.00
             1448.11,345.00 1470.66,345.00 1470.66,345.00 Z
           M 1433.42,345.00
           C 1433.42,345.00 1433.42,320.00 1433.42,320.00
             1433.42,320.00 1409.94,320.00 1409.94,320.00
             1409.94,320.00 1409.94,345.00 1409.94,345.00
             1409.94,345.00 1433.42,345.00 1433.42,345.00 Z
           M 1663.80,349.39
           C 1663.80,349.39 1652.33,360.00 1652.33,360.00
             1642.54,348.27 1634.83,340.65 1629.22,337.14
             1629.22,337.14 1629.22,413.00 1629.22,413.00
             1629.22,413.00 1613.88,413.00 1613.88,413.00
             1613.88,413.00 1613.88,338.69 1613.88,338.69
             1610.59,342.77 1603.23,349.21 1591.80,358.00
             1591.80,358.00 1581.09,346.25 1581.09,346.25
             1603.26,330.22 1620.59,311.80 1633.09,291.00
             1633.09,291.00 1585.36,291.00 1585.36,291.00
             1585.36,291.00 1585.36,277.00 1585.36,277.00
             1585.36,277.00 1614.25,277.00 1614.25,277.00
             1614.25,277.00 1614.25,240.00 1614.25,240.00
             1614.25,240.00 1629.78,240.00 1629.78,240.00
             1629.78,240.00 1629.78,277.00 1629.78,277.00
             1629.78,277.00 1649.95,277.00 1649.95,277.00
             1649.95,277.00 1649.95,289.80 1649.95,289.80
             1644.40,301.45 1637.43,312.48 1629.03,322.88
             1629.03,322.88 1629.22,329.94 1629.22,329.94
             1629.22,329.94 1634.91,324.00 1634.91,324.00
             1642.86,327.87 1652.49,336.33 1663.80,349.39 Z
           M 1756.16,401.00
           C 1756.16,401.00 1639.16,401.00 1639.16,401.00
             1639.16,401.00 1639.16,386.00 1639.16,386.00
             1639.16,386.00 1689.56,386.00 1689.56,386.00
             1689.56,386.00 1689.56,317.00 1689.56,317.00
             1689.56,317.00 1647.69,317.00 1647.69,317.00
             1647.69,317.00 1647.69,303.00 1647.69,303.00
             1647.69,303.00 1689.56,303.00 1689.56,303.00
             1689.56,303.00 1689.56,241.00 1689.56,241.00
             1689.56,241.00 1704.91,241.00 1704.91,241.00
             1704.91,241.00 1704.91,303.00 1704.91,303.00
             1704.91,303.00 1748.95,303.00 1748.95,303.00
             1748.95,303.00 1748.95,317.00 1748.95,317.00
             1748.95,317.00 1704.91,317.00 1704.91,317.00
             1704.91,317.00 1704.91,386.00 1704.91,386.00
             1704.91,386.00 1756.16,386.00 1756.16,386.00
             1756.16,386.00 1756.16,401.00 1756.16,401.00 Z" />
</svg>
