
<svg xmlns="http://www.w3.org/2000/svg"
     width="1.54333in" height="0.296667in"
     viewBox="0 0 463 89">
  <path id="Selection"
        fill="#c33" stroke="#c33" stroke-width="1"
        d="M 27.00,0.00
           C 24.42,6.33 25.49,11.13 28.88,16.99
             31.73,21.90 34.52,23.09 33.53,26.30
             33.15,27.53 31.48,29.91 30.69,30.99
             25.54,38.09 22.93,36.89 15.00,37.00
             7.55,37.11 3.61,39.65 1.22,47.00
             -0.31,51.72 -1.16,57.55 5.02,59.04
             13.40,61.07 25.55,46.20 30.00,44.83
             34.96,43.30 50.79,49.93 56.00,52.00
             56.00,52.00 42.00,68.00 42.00,68.00
             49.14,68.71 53.39,65.13 59.00,61.13
             61.98,59.00 64.97,55.32 69.00,56.28
             71.97,56.98 76.30,60.90 84.08,63.00
             84.24,61.59 84.68,60.77 84.08,59.24
             82.98,55.83 74.32,51.97 71.00,51.00
             71.00,51.00 75.10,42.02 75.10,42.02
             75.52,37.40 66.50,34.82 63.00,34.00
             63.14,36.91 63.83,44.30 60.69,45.77
             58.92,46.59 56.67,45.50 55.00,44.90
             51.59,43.68 39.09,40.77 40.90,35.96
             41.95,33.16 49.30,25.98 49.48,22.84
             49.68,19.43 44.64,14.54 41.91,12.96
             39.74,11.71 37.66,11.67 35.11,9.57
             32.10,7.11 30.75,3.35 29.00,0.00
             29.00,0.00 27.00,0.00 27.00,0.00 Z
           M 128.00,15.00
           C 128.00,15.00 131.78,23.15 131.78,23.15
             132.49,27.60 125.11,29.00 122.00,28.52
             117.40,27.81 116.05,23.40 112.68,21.01
             109.67,18.87 106.49,19.03 103.00,19.00
             103.58,25.96 105.09,23.16 109.00,30.00
             109.00,30.00 97.42,31.15 97.42,31.15
             97.42,31.15 86.00,29.00 86.00,29.00
             87.08,32.02 92.77,41.09 96.06,41.36
             100.28,41.71 106.95,35.83 111.70,39.60
             113.68,41.17 115.13,45.59 116.26,48.00
             116.26,48.00 126.00,68.00 126.00,68.00
             128.52,64.43 127.40,63.09 127.08,59.00
             126.41,50.35 124.73,44.18 122.00,36.20
             122.00,36.20 131.00,36.20 131.00,36.20
             131.00,36.20 137.00,34.21 137.00,34.21
             137.00,34.21 155.00,34.21 155.00,34.21
             151.36,38.95 143.63,44.60 137.00,43.61
             134.30,43.21 130.52,40.44 128.00,39.00
             133.66,52.36 144.61,49.55 156.00,45.19
             161.12,43.22 169.29,40.32 166.26,33.13
             164.20,28.25 154.68,27.04 150.00,27.05
             147.57,27.05 144.47,27.72 142.68,25.60
             141.03,23.64 141.98,20.75 140.65,18.19
             138.05,13.20 132.52,13.91 128.00,15.00 Z
           M 194.00,20.00
           C 197.26,25.65 204.02,28.20 210.00,30.00
             210.00,30.00 210.00,32.00 210.00,32.00
             210.00,32.00 196.00,35.68 196.00,35.68
             196.00,35.68 184.00,37.00 184.00,37.00
             190.13,46.38 200.76,43.30 210.00,42.00
             210.35,45.91 213.10,53.59 210.98,56.67
             209.21,59.25 206.45,58.18 204.00,57.55
             198.29,56.08 191.90,54.26 186.00,54.04
             182.96,53.93 179.36,53.62 178.31,57.15
             175.42,66.93 184.49,74.75 193.00,77.44
             196.33,78.18 205.59,78.35 209.00,77.44
             213.33,76.78 214.75,74.65 218.00,73.58
             221.03,72.58 224.56,73.47 226.54,71.98
             228.24,70.48 227.64,67.90 226.54,66.09
             224.25,61.49 219.87,61.19 220.14,52.00
             220.23,49.02 220.57,39.47 221.59,37.07
             223.18,33.32 227.77,31.39 227.80,28.09
             227.83,26.05 225.80,24.67 224.80,23.12
             223.24,20.68 223.34,16.31 219.89,15.34
             215.92,14.22 213.28,20.42 210.34,21.52
             208.64,22.15 205.76,21.04 204.00,20.67
             200.22,19.87 197.78,20.00 194.00,20.00 Z
           M 338.25,14.00
           C 338.25,14.00 338.25,26.00 338.25,26.00
             338.25,26.00 345.00,40.00 345.00,40.00
             345.00,40.00 330.00,44.00 330.00,44.00
             333.01,50.02 340.42,52.89 347.00,52.80
             349.49,52.94 352.81,52.04 354.99,52.80
             357.52,53.43 364.67,59.65 364.27,62.48
             364.27,62.48 360.00,68.00 360.00,68.00
             360.00,68.00 365.00,67.03 365.00,67.03
             365.00,67.03 369.69,66.28 369.69,66.28
             376.49,63.30 367.04,52.37 368.02,48.00
             368.82,44.48 373.34,39.66 371.40,35.15
             369.34,30.36 365.07,34.34 361.04,32.22
             352.27,27.62 352.95,15.36 338.25,14.00 Z
           M 311.00,20.00
           C 314.45,26.14 317.94,28.76 325.00,29.00
             323.72,20.64 318.68,19.00 311.00,20.00 Z
           M 295.00,21.00
           C 295.26,28.51 298.28,32.38 306.00,33.00
             305.48,25.81 302.30,21.85 295.00,21.00 Z
           M 244.00,28.00
           C 245.02,33.35 250.37,42.06 255.09,44.86
             257.17,46.10 259.67,46.52 262.00,47.00
             256.74,54.15 248.94,57.07 248.16,64.00
             247.28,71.80 252.34,72.54 258.00,75.01
             258.00,75.01 268.00,79.37 268.00,79.37
             272.63,80.68 284.17,80.86 289.00,80.00
             289.00,80.00 283.00,63.00 283.00,63.00
             275.02,69.57 274.39,73.12 263.00,68.87
             260.79,68.05 256.17,65.88 256.62,62.95
             257.08,59.89 262.51,57.34 265.00,56.09
             265.00,56.09 293.00,43.00 293.00,43.00
             292.29,36.85 289.47,33.76 284.00,31.00
             283.19,33.77 282.92,34.69 280.85,36.90
             278.49,39.42 272.66,43.62 269.00,42.92
             266.24,42.40 263.12,39.11 261.00,37.28
             255.17,32.25 251.97,28.46 244.00,28.00 Z
           M 398.00,35.00
           C 397.30,46.93 386.53,50.81 383.89,61.00
             383.03,63.82 383.64,66.17 383.89,69.00
             392.96,66.78 396.79,57.82 406.00,58.74
             412.17,59.36 421.72,72.25 432.00,72.95
             448.44,74.06 465.70,50.39 462.00,35.00
             458.23,40.21 455.72,50.46 450.24,56.79
             447.96,59.41 444.06,61.46 441.00,63.14
             438.15,64.69 434.33,66.71 431.00,66.44
             421.99,65.72 414.92,54.09 407.00,53.20
             402.70,52.72 398.04,54.65 394.00,56.00
             398.43,49.64 404.39,45.67 406.00,38.00
             406.00,38.00 398.00,35.00 398.00,35.00 Z
           M 19.00,43.17
           C 18.24,44.77 17.91,45.85 16.52,47.32
             9.19,55.04 4.39,45.35 14.00,43.17
             15.64,43.00 17.34,43.04 19.00,43.17 Z
           M 394.00,56.00
           C 394.00,56.00 394.00,57.00 394.00,57.00
             394.00,57.00 393.00,56.00 393.00,56.00
             393.00,56.00 394.00,56.00 394.00,56.00 Z
           M 210.00,67.00
           C 208.27,72.00 205.75,71.26 201.00,71.38
             193.29,71.56 187.71,69.86 185.00,62.00
             192.79,59.86 202.53,64.51 210.00,67.00 Z
           M 322.00,63.87
           C 323.07,70.31 326.29,70.87 331.00,74.44
             338.42,80.08 344.09,85.23 353.00,89.00
             354.39,82.18 349.95,80.07 345.00,76.45
             341.03,73.54 331.12,64.64 327.00,63.87
             325.32,63.37 323.66,63.76 322.00,63.87 Z" />
</svg>
